<?xml version="1.0" encoding="UTF-8"?>
<svg width="768px" height="600px" viewBox="0 0 768 600" version="1.1" xmlns="http://www.w3.org/2000/svg" xmlns:xlink="http://www.w3.org/1999/xlink">
    <!-- Generator: Sketch 47.1 (45422) - http://www.bohemiancoding.com/sketch -->
    <title>Group</title>
    <desc>Created with Sketch.</desc>
    <defs>
        <linearGradient x1="62.1037959%" y1="33.805867%" x2="1.11022302e-14%" y2="100%" id="linearGradient-1">
            <stop stop-color="#8800FE" offset="0%"></stop>
            <stop stop-color="#A837EB" offset="50.3550607%"></stop>
            <stop stop-color="#BE5DDD" offset="84.6109041%"></stop>
            <stop stop-color="#C86DD7" offset="100%"></stop>
        </linearGradient>
        <path d="M5.40949935,26.6021632 C6.85295675,26.6021603 8.48189711,26.1472849 10.2063043,25.1869202 C16.1395652,21.8864109 20.9482609,13.8595722 20.9482609,7.25855348 C20.9482609,3.20112733 19.1267391,0.626730051 16.351087,0.0106349745 C17.3052174,1.2281562 17.8576087,2.98109338 17.8576087,5.17849915 C17.8576087,11.5726859 13.2026087,19.3501528 7.45347826,22.5435789 C4.67782609,24.0940849 2.15478261,24.2803803 0.286086957,23.3415688 C1.27999299,25.4470101 3.10921025,26.6021542 5.40945863,26.6021632 L5.40949935,26.6021632 L5.40949935,26.6021632 Z" id="path-2"></path>
        <path d="M5.09381295,31.7071887 C8.6225876,31.7071919 13.6026437,29.5425723 18.4789407,26.3102324 C24.1020286,22.5871982 29.5998607,17.7214652 33.3933202,14.1125526 C32.303297,12.154699 31.3504588,10.8726828 31.3504588,10.8726828 L22.8837674,4.90130344 C22.8837674,4.90130344 17.6274999,1.73257446 14.9330104,0.490574974 C14.3995679,0.245189211 13.8197813,0.145189967 13.2407506,0.145181468 L33.3933202,0.145181467 L33.3933202,31.7071887 L5.0938269,31.7071887 C1.2589715,31.7071852 -0.861918053,29.1507793 0.726922239,22.6301791 C3.16493569,12.6082215 10.4133659,3.42216802 13.2152174,0.145245763 C13.2237282,0.145202823 13.2322394,0.145181343 13.2407506,0.145181468 L5.09381295,31.7071887 Z" id="path-4"></path>
        <polygon id="path-6" points="35.4344941 0.544909091 0.167670588 0.544909091 0.167670588 51.5572364 35.4344941 51.5572364"></polygon>
        <polygon id="path-8" points="35.4344941 0.544909091 0.167670588 0.544909091 0.167670588 51.5572364 35.4344941 51.5572364"></polygon>
    </defs>
    <g id="Website" stroke="none" stroke-width="1" fill="none" fill-rule="evenodd">
        <g id="Tablet-7″">
            <g id="Group" transform="translate(0.000000, -576.000000)">
                <g id="D-background-Copy">
                    <path d="M409.160232,133 C766.245525,133 925.446051,387.79 929.909618,645.56 C934.373184,909.29 773.684802,1176 409.160232,1176 L0,1176 L0,133 L409.160232,133 Z" id="D" fill="url(#linearGradient-1)"></path>
                    <path d="M491.456823,195 C699.564596,195 792.345978,343.037143 794.947325,492.805714 C797.548673,646.037143 703.900175,801 491.456823,801 L253,801 L253,195 L491.456823,195 Z" id="D-Copy" fill="url(#linearGradient-1)" opacity="0.73680933"></path>
                    <path d="M357.81708,0 C563.621077,0 655.375359,146.571429 657.947909,294.857143 C660.520459,446.571429 567.90866,600 357.81708,600 L122,600 L122,0 L357.81708,0 Z" id="D-Copy-3" stroke="url(#linearGradient-1)" stroke-width="3" opacity="0.548629982"></path>
                </g>
                <g id="Group-5" transform="translate(387.000000, 679.000000)">
                    <g id="Page-1-Copy-5" transform="translate(95.000000, 162.000000)">
                        <polygon id="Fill-1" fill="#F2F2F2" points="200 97.9194823 200 103 257 68.0805177 257 63"></polygon>
                        <polygon id="Fill-2" fill="#BCBCBC" points="112 46 200 97.9499418 200 103 112 51.0500582"></polygon>
                        <polygon id="Fill-3" fill="#FFFFFF" points="112 46.4524651 199.798303 98 257 63.5521574 169.208623 12"></polygon>
                        <g id="Group-12" transform="translate(126.000000, 35.000000)" fill="#ECECEC">
                            <polygon id="Fill-4" points="52.3901439 23.1987 14.1534806 0.810366667 11.0125418 2.8497 49.2584296 25.2392"></polygon>
                            <polygon id="Fill-6" points="47.0224133 27.12255 8.78459694 4.73421667 5.6425051 6.77588333 43.8860867 29.1618833"></polygon>
                            <polygon id="Fill-8" points="51.4927163 36.9355 3.41236939 8.66133333 0.272583673 10.6995 48.359849 38.9725"></polygon>
                            <path d="M111.966511,28.0807333 C111.966511,35.1775667 101.948715,40.9327333 89.5832867,40.9327333 C77.2224704,40.9327333 67.2023684,35.1775667 67.2023684,28.0807333 C67.2023684,20.9804 77.2224704,15.2275667 89.5832867,15.2275667 C101.948715,15.2275667 111.966511,20.9804 111.966511,28.0807333" id="Fill-10"></path>
                        </g>
                        <g id="Group-13" transform="translate(0.000000, 34.000000)">
                            <polygon id="Fill-13" fill="#ECECEC" points="128 76.0472336 128 81 185 46.9527664 185 42"></polygon>
                            <polygon id="Fill-14" fill="#BCBCBC" points="0 4.94840817 128 81 128 76.0515918 0 0"></polygon>
                        </g>
                        <polygon id="Fill-15" fill="#E5E6E7" points="56.6498038 0 0 33.999748 128.355984 110 128.355984 109.99769 128.355984 110 185 76.0025617"></polygon>
                        <polygon id="Fill-16" fill="#D0D2D3" points="57 0 81.555267 58.1455662 185 76"></polygon>
                        <g id="Group-23" transform="translate(12.000000, 26.000000)" fill="#BCBCBC">
                            <path d="M48.0762333,20.8712903 L45.2377333,22.6863871 L10.5714,2.72264516 L13.4157333,0.906387097 L48.0762333,20.8712903 Z M43.2056333,24.371071 L40.3659667,26.187329 L5.70196667,6.22707097 L8.54513333,4.40732903 L43.2056333,24.371071 Z M47.26505,33.122671 L44.4207167,34.938929 L0.831716667,9.72731613 L3.68071667,7.90525161 L47.26505,33.122671 Z" id="Combined-Shape"></path>
                        </g>
                    </g>
                    <g id="Biker-Copy" transform="translate(0.000000, 251.000000)">
                        <g id="Group-9" transform="translate(4.000000, 144.000000)">
                            <path d="M13.2596489,29.4527798 C10.6131686,31.0035358 8.21162542,31.1946243 6.43184568,30.2509414 C5.92747814,29.1323392 5.65210505,27.7432734 5.65210505,26.1146121 C5.65210505,19.498543 10.2319943,11.4522506 15.8829399,8.14495104 C18.0569379,6.87053826 20.0744081,6.48689151 21.7324439,6.87788782 C22.6411751,8.09497406 23.168732,9.8485778 23.168732,12.0534442 C23.168732,18.4607859 18.729428,26.2498439 13.2596489,29.4527798 M16.106137,2.1800525 C7.559426,7.18362929 0.635966895,19.3471422 0.635966895,29.3572356 C0.635966895,39.3643892 7.559426,43.4184035 16.1090356,38.4177665 C24.6513986,33.4141898 31.5792057,21.2418574 31.5763071,11.2405834 C31.5763071,1.23342986 24.6513986,-2.82058447 16.106137,2.1800525" id="Fill-3" fill="#3A3939"></path>
                            <path d="M16.6607964,37.2616816 C8.85614337,41.8331046 2.53125839,38.130399 2.53125839,28.9890229 C2.53125839,19.8505867 8.85614337,8.73512027 16.6578977,4.16810703 C24.4668987,-0.400376129 30.788885,3.30085958 30.788885,12.4407657 C30.788885,21.5792019 24.4668987,32.6917285 16.6607964,37.2616816 M16.1057022,2.17931754 C7.56044053,7.18436425 0.635532095,19.3478772 0.635532095,29.3579706 C0.635532095,39.3636542 7.56044053,43.4176686 16.1086008,38.4170316 C24.6524132,33.4134548 31.5787709,21.2425923 31.5758723,11.2398485 C31.5758723,1.23269491 24.6524132,-2.82131942 16.1057022,2.17931754" id="Fill-5" fill="#575656"></path>
                            <path d="M15.8823601,32.1005304 C10.2328639,35.4137096 5.65152532,32.7296522 5.65152532,26.1135832 C5.65152532,19.498984 10.2328639,11.4526916 15.8823601,8.14539201 C21.5318564,4.83809243 26.1102963,7.52067987 26.1102963,14.1338091 C26.1102963,20.7513481 21.5318564,28.7976405 15.8823601,32.1005304 M16.1055572,7.65003203 C10.1415559,11.1396006 5.3022363,19.6356857 5.3022363,26.6236423 C5.3022363,33.6071891 10.1415559,36.4411773 16.1084559,32.9471991 C22.0724572,29.4532208 26.9059795,20.9630153 26.9059795,13.9735888 C26.9059795,6.98563229 22.0710079,4.15605376 16.1055572,7.65003203" id="Fill-7" fill="#DBDBDA"></path>
                        </g>
                        <path d="M28.8616778,156.050553 C28.8616778,162.304574 24.1240333,169.905506 18.2866613,173.031082 L18.2866613,173.031082 C15.462326,174.544383 12.8978419,174.729422 11,173.809966 L11,173.809966 C12.6441777,177.162179 16.5419459,178.052946 21.0847021,175.614452 L21.0847021,175.614452 C27.1154158,172.389901 32,164.539383 32,158.081675 L32,158.081675 C32,154.11697 30.154747,151.601017 27.328865,151 L27.328865,151 C28.2986669,152.18769 28.8616778,153.89894 28.8616778,156.050553" id="Fill-10"></path>
                        <g id="Group-20" transform="translate(0.000000, 141.000000)">
                            <path d="M16.9055056,13.4192897 L16.8026811,18.634531 C17.8439601,17.2311517 19.0908881,16.0392207 20.4377442,15.2614966 C20.6245662,15.1528759 20.8084917,15.0587379 20.9895207,14.9747379 L20.1741659,10.8949448 C19.0315106,11.5597034 17.9279576,12.4228759 16.9055056,13.4192897" id="Fill-12" fill="#C7C7C6"></path>
                            <path d="M10.1495018,30.5412414 C10.3247379,31.6013793 10.6520384,32.5210345 11.0995422,33.2770345 L14.7708111,29.9474483 C14.2016558,29.1537931 13.8729071,28.0342759 13.8729071,26.6395862 C13.8729071,26.3586207 13.8873894,26.0733103 13.9134576,25.7865517 L10.1495018,30.5412414 Z" id="Fill-14" fill="#C7C7C6"></path>
                            <path d="M4.98032614,31.7716966 C4.98032614,21.9089379 11.8985319,9.92445517 20.438758,4.99452414 C24.3055383,2.75838621 27.8392251,2.36155862 30.550316,3.51148966 L30.5546607,3.50714483 L24.7573867,0.444041379 C22.1650509,-0.311958621 18.9470787,0.207972414 15.458287,2.22542069 C6.91950922,7.15535172 0.00130340909,19.142731 0.00130340909,28.9982483 C0.00130340909,33.9484552 1.74497513,37.422869 4.56033876,39.0304552 L9.21061275,41.6011448 L9.21785391,41.5982483 C6.59220871,39.9110069 4.98032614,36.5249379 4.98032614,31.7716966" id="Fill-16" fill="#3A3939"></path>
                            <path d="M27.0064915,19.0533724 C27.0064915,23.246131 24.0680282,28.3339241 20.4416544,30.428131 C16.8138324,32.5237862 13.8739208,30.8235103 13.8739208,26.6394414 C13.8739208,22.4495793 16.8138324,17.3588897 20.438758,15.2617862 C24.0680282,13.1690276 27.0064915,14.8664069 27.0064915,19.0533724" id="Fill-18" fill="#DBDBDA"></path>
                        </g>
                        <path d="M21.4983778,159.582224 C19.0147801,160.938696 17,164.243078 17,166.960629 L17,166.960629 C17,169.673572 19.0147801,170.778105 21.4983778,169.417025 L21.4983778,169.417025 C23.9819755,168.060554 26,164.757708 26,162.03862 L26,162.03862 C26,160.113752 24.9844989,158.998465 23.5082913,159.000002 L23.5082913,159.000002 C22.9032084,159.000002 22.2202596,159.185883 21.4983778,159.582224" id="Fill-21"></path>
                        <g id="Group-33" transform="translate(21.000000, 85.000000)">
                            <path d="M0.414835789,86.7735672 L0.990330526,88.5757735 C0.990330526,88.5757735 3.22187132,86.9625682 3.85131868,86.0116105 L3.33876868,84.2094043 C2.46053974,85.2481656 1.46841079,86.1276899 0.414835789,86.7735672" id="Fill-23" fill="#C7C7C6"></path>
                            <path d="M9.29858618,71.2106012 L6.52751908,72.7464202 C6.80927171,73.4369435 6.96513487,74.2747983 6.96513487,75.2406379 C6.96513487,75.8850271 6.89020066,76.550251 6.76131382,77.2214278 L8.86546645,75.5725058 C9.68374803,73.6036215 9.29858618,71.2106012 9.29858618,71.2106012" id="Fill-25" fill="#C7C7C6"></path>
                            <path d="M99.6587533,30.3048356 C96.9251533,31.8793477 94.4418336,32.0683487 92.6014493,31.1159028 C92.0844033,29.9833851 91.7951572,28.5710864 91.7951572,26.9251408 C91.7951572,20.2267674 96.528002,12.0833549 102.371372,8.7319359 C104.623894,7.44315754 106.708564,7.05325 108.423059,7.44613393 C109.362734,8.68133721 109.906756,10.4582441 109.906756,12.689051 C109.906756,19.1746123 105.320782,27.0650313 99.6587533,30.3048356 M102.605166,2.69581 C93.7689243,7.75865525 86.6052138,20.0764595 86.6052138,30.2051264 C86.6052138,40.3352815 93.7689243,44.4456808 102.605166,39.3753946 C111.436912,34.3140375 118.605119,21.9947451 118.605119,11.8631018 C118.605119,1.73592311 111.436912,-2.37447623 102.605166,2.69581" id="Fill-27" fill="#3A3939"></path>
                            <path d="M103.177064,38.2108807 C95.1081486,42.8376843 88.566392,39.0904049 88.566392,29.8353095 C88.566392,20.5831905 95.1036525,9.32944689 103.177064,4.70413148 C111.244481,0.0788160656 117.787737,3.82758361 117.787737,13.082679 C117.789235,22.3362862 111.244481,33.5855652 103.177064,38.2108807 M102.604567,2.6950659 C93.7698236,7.75791115 86.6046143,20.0757154 86.6046143,30.2058705 C86.6046143,40.3345374 93.7698236,44.4464249 102.604567,39.3761387 C111.437812,34.3147816 118.60452,21.994001 118.60452,11.8623577 C118.60452,1.73666721 111.437812,-2.37522033 102.604567,2.6950659" id="Fill-29" fill="#575656"></path>
                            <path d="M102.370622,32.9877566 C96.5287513,36.3361992 91.7944079,33.6217284 91.7944079,26.9248432 C91.7944079,20.2264697 96.5287513,12.0830573 102.370622,8.73163826 C108.212493,5.38319564 112.949834,8.09766646 112.949834,14.7975281 C112.949834,21.4959015 108.212493,29.639314 102.370622,32.9877566 M102.604417,8.22862777 C96.4328355,11.763095 91.433225,20.3678484 91.433225,27.4352947 C91.433225,34.5101819 96.4328355,37.3824015 102.604417,33.8434697 C108.773001,30.3045379 113.772612,21.7027609 113.772612,14.6278737 C113.772612,7.56042744 108.773001,4.68969597 102.604417,8.22862777" id="Fill-31" fill="#DBDBDA"></path>
                        </g>
                        <g id="Group-36" transform="translate(114.000000, 93.000000)">
                            <mask id="mask-3" fill="white">
                                <use xlink:href="#path-2"></use>
                            </mask>
                            <g id="Clip-35"></g>
                            <path d="M17.8576087,5.17849915 C17.8576087,11.5726859 13.2026087,19.3501528 7.45347826,22.5435789 L7.45347826,22.5435789 C4.67782609,24.0940849 2.15478261,24.2803803 0.286086957,23.3415688 L0.286086957,23.3415688 C1.90369565,26.7682309 5.73391304,27.6777046 10.2063043,25.1869202 L10.2063043,25.1869202 C16.1395652,21.8864109 20.9482609,13.8595722 20.9482609,7.25855348 L20.9482609,7.25855348 C20.9482609,3.20112733 19.1267391,0.626730051 16.351087,0.0106349745 L16.351087,0.0106349745 C17.3052174,1.2281562 17.8576087,2.98109338 17.8576087,5.17849915" id="Fill-34" mask="url(#mask-3)"></path>
                        </g>
                        <g id="Group-45" transform="translate(102.000000, 83.000000)">
                            <path d="M17.4849455,13.3591862 L17.3831273,18.5744276 C18.4289455,17.1724966 19.6842182,15.9805655 21.0369455,15.2042897 C21.2245818,15.0942207 21.4093091,15.001531 21.5925818,14.9102897 L20.7722182,10.8377379 C19.6231273,11.4996 18.5191273,12.3598759 17.4849455,13.3591862" id="Fill-37" fill="#C7C7C6"></path>
                            <path d="M10.7022545,30.4796897 C10.8797091,31.5427241 11.2069818,32.460931 11.6549818,33.2183793 L15.3451636,29.8873448 C14.7706182,29.0936897 14.4404364,27.9741724 14.4404364,26.5765862 C14.4404364,26.2985172 14.4578909,26.0146552 14.4840727,25.7264483 L10.7022545,30.4796897 Z" id="Fill-39" fill="#C7C7C6"></path>
                            <path d="M5.50909091,31.7094207 C5.50909091,21.8524552 12.4618182,9.86507586 21.0378182,4.93804138 C24.9243636,2.70335172 28.4690909,2.30652414 31.192,3.45211034 L31.1949091,3.44486897 L25.3723636,0.381765517 C22.7745455,-0.374234483 19.5410909,0.151489655 16.0356364,2.16604138 C7.45963636,7.09597241 0.508363636,19.0833517 0.508363636,28.9403172 C0.508363636,33.8919724 2.25818182,37.3576966 5.08872727,38.9696276 L9.76218182,41.538869 L9.76509091,41.5345241 C7.128,39.8516276 5.50909091,36.4655586 5.50909091,31.7094207" id="Fill-41" fill="#3A3939"></path>
                            <path d="M27.6340364,18.9960207 C27.6340364,23.1815379 24.6798545,28.2736759 21.0376727,30.3664345 C17.3954909,32.4606414 14.4413091,30.7632621 14.4413091,26.5762966 C14.4413091,22.389331 17.3954909,17.3000897 21.0376727,15.2044345 C24.6798545,13.1116759 27.6340364,14.8061586 27.6340364,18.9960207" id="Fill-43" fill="#DBDBDA"></path>
                        </g>
                        <path d="M124.5,102.582217 C122.015507,103.938674 120,107.241487 120,109.959011 L120,109.959011 C120,112.674998 122.015507,113.776448 124.5,112.418454 L124.5,112.418454 C126.984493,111.058924 129,107.756112 129,105.040124 L129,105.040124 C129,103.115275 127.985755,102 126.510638,102 L126.510638,102 C125.905337,102 125.222142,102.187415 124.5,102.582217" id="Fill-46"></path>
                        <g id="Group-249" transform="translate(3.000000, 0.000000)">
                            <path d="M120.22657,113.921439 L120.799168,115.711815 C120.799168,115.711815 123.016492,114.109666 123.645753,113.15964 L123.135784,111.367781 C122.257502,112.397841 121.274841,113.275244 120.22657,113.921439" id="Fill-48" fill="#C7C7C6"></path>
                            <path d="M129.062766,98.4201591 L126.307139,99.9482038 C126.585983,100.638862 126.744043,101.476249 126.744043,102.436649 C126.744043,103.076916 126.669486,103.739415 126.541248,104.406359 L128.6363,102.761229 C129.44748,100.801893 129.062766,98.4201591 129.062766,98.4201591" id="Fill-50" fill="#C7C7C6"></path>
                            <path d="M140.488027,68.270844 L138.091766,64.267693 C138.091766,64.267693 139.202665,56.7801257 138.94768,53.4557762 C138.691204,50.1403194 135.00958,45.3724049 130.211092,45.5443285 L115.480123,55.1587087 L67.8665405,87.8834683 L64.3131546,103.510727 L53.7648321,114.104775 C53.7722878,114.3345 53.7722878,114.558297 53.7588676,114.77913 C53.496427,121.046929 53.037156,120.852774 51.8546822,123.393093 C50.6766818,125.940822 47.3245997,130.573866 47.3245997,130.573866 C47.3245997,130.573866 46.7221792,131.058512 45.6336472,131.878113 L39.4051566,143.229514 L34.5574613,147.140775 L28.6063227,148.04782 L21.1431684,146.998494 C20.5869733,147.26379 20.0277959,147.524639 19.4686185,147.775114 C22.1929307,149.412834 28.6018493,153.227758 31.6124604,154.724679 C35.492406,156.654373 44.1708392,161.02212 44.7404545,162.154444 C45.3130522,163.292697 44.9149179,163.57726 44.287148,164.199742 C44.287148,164.199742 47.1337338,164.656229 53.4442371,162.441972 C59.7562316,160.227715 73.2301701,153.87099 78.4849465,150.239846 C83.7382317,146.607219 102.551942,130.662792 108.204852,125.044152 C113.85329,119.42403 125.670572,104.68455 129.012216,99.4142033 C132.35386,94.1468213 141.260438,73.2921975 141.260438,73.2921975 L140.488027,68.270844 Z" id="Fill-52" fill="#666666"></path>
                            <path d="M67.8663914,87.8840611 L64.3130054,103.509837 L55.8164913,131.884635 C55.8164913,131.884635 58.342482,137.14016 64.3130054,137.029002 C70.28502,136.917845 87.6881118,131.791262 93.8465188,128.211992 C99.9870322,124.632721 108.459688,117.986987 108.48802,117.963273 L91.2176395,71.8344044 L67.8663914,87.8840611 Z" id="Fill-88" fill-opacity="0.2" fill="#282828"></path>
                            <path d="M40.1739882,95.3089356 L48.6406796,101.280315 C48.6406796,101.280315 54.0207117,108.51889 53.7582711,114.779278 C53.4973217,121.047078 53.0365595,120.85144 51.8540857,123.393241 C50.6760853,125.939488 47.3254944,130.572532 47.3254944,130.572532 C47.3254944,130.572532 32.6869757,142.266298 17.4549834,148.648219 C14.3250811,149.959877 9.1821402,151.647988 3.99595623,150.543824 C3.99595623,150.543824 -0.862176989,149.825006 0.710975421,140.492225 C2.29158353,131.160925 7.73573466,117.847225 12.926392,109.430381 C18.1095937,101.012055 25.7934367,92.1402066 25.7934367,92.1402066 C25.7934367,92.1402066 29.5332152,89.6576898 32.2232312,90.8982071 C34.9192118,92.1402066 40.1739882,95.3089356 40.1739882,95.3089356" id="Fill-54" fill="#F2F2F2"></path>
                            <path d="M60.5256597,95.981957 C60.5256597,95.981957 60.8701129,94.1604566 59.7517581,90.7827516 C58.6348945,87.4035644 55.6406859,84.0703224 53.4487105,82.3851751 L40.7993722,76.075877 L29.8484421,75.7068342 C29.8484421,75.7068342 28.1843302,75.8165096 27.7101477,76.4627051 C27.232983,77.1059363 25.9610408,79.0978782 25.9610408,79.0978782 C25.9610408,79.0978782 25.7090382,79.7307347 25.9610408,80.1753646 C26.20857,80.6244408 29.8409864,86.653622 29.8409864,86.653622 C29.8409864,86.653622 30.755055,88.4439984 32.2118986,89.5792867 C33.6687421,90.7116108 38.3449562,94.0063182 40.8873495,94.4316808 C43.4297427,94.8555613 55.3901744,97.2713837 55.3901744,97.2713837 C55.3901744,97.2713837 59.0971478,96.7081859 60.5256597,95.981957" id="Fill-56" fill="#D1D3D4"></path>
                            <path d="M140.488027,68.270844 L138.091766,64.267693 C138.091766,64.267693 139.202665,56.7801257 138.94768,53.4557762 C138.691204,50.1403194 135.00958,45.3724049 130.211092,45.5443285 L115.480123,55.1587087 L89.5566589,72.9809566 L106.974662,102.400634 C100.351019,110.063089 93.3680121,125.525834 93.3680121,125.525834 L93.8466679,128.211399 L97.0436715,130.04772 C107.416039,120.396288 125.130779,98.0343686 125.130779,98.0343686 L141.260438,73.2921975 L140.488027,68.270844 Z" id="Fill-58" fill="#F2F2F2"></path>
                            <polygon id="Fill-60" fill="#E5E5E5" points="59.9709557 107.872842 62.4596679 109.686932 64.3131546 103.511023"></polygon>
                            <polygon id="Fill-62" fill="#283335" points="136.985937 83.0534538 141.826176 91.6511137 135.451554 84.4021645"></polygon>
                            <path d="M91.453836,139.857441 C91.453836,139.857441 109.340057,129.490154 111.190561,127.127688 C113.041066,124.760775 114.362216,115.248659 114.362216,115.248659 L91.453836,139.857441 Z" id="Fill-64" fill="#666666"></path>
                            <path d="M16.2589402,172.61125 L23.8533148,144.815954 L26.9295361,144.924147 L19.672159,173.073665 C19.672159,173.073665 19.2934096,173.579061 17.8842825,173.390834 C16.3394618,173.187787 16.2589402,172.61125 16.2589402,172.61125" id="Fill-66" fill="#4C4C4C"></path>
                            <polygon id="Fill-68" fill="#4E4E4E" points="47.5511038 95.1301944 44.8059156 100.766619 33.9161222 93.919319 34.5826616 89.173636"></polygon>
                            <path d="M51.8540857,123.393686 C52.6757037,121.634434 53.1469038,121.182393 53.4436406,118.994814 C52.0315313,121.323193 47.9875604,127.281233 41.0045531,132.253677 C32.1203426,138.585207 21.6674531,145.00418 15.4896612,147.408146 C10.3407558,149.419355 3.83938656,151.357942 0.578263985,146.089077 C1.30594017,150.14262 3.99595623,150.542787 3.99595623,150.542787 C9.1821402,151.646951 14.3250811,149.960322 17.4549834,148.648663 C32.6869757,142.266742 47.3254944,130.572976 47.3254944,130.572976 C47.3254944,130.572976 50.6760853,125.939933 51.8540857,123.393686" id="Fill-70" fill-opacity="0.2" fill="#000000"></path>
                            <path d="M45.5968161,129.55507 C45.5968161,129.55507 37.9666541,135.283385 31.5845761,139.368052 C25.2755639,143.400845 21.744545,145.136384 18.4297414,146.617001 L28.6052789,148.047227 L34.5579087,147.140182 L39.4056039,143.228922 L45.6326034,131.877521 L45.5968161,129.55507 Z" id="Fill-72" fill="#686868"></path>
                            <path d="M11.3937986,112.040506 L11.3937986,112.037542 C11.3937986,112.037542 2.20688679,124.195205 0.401116586,129.554478 C0.401116586,129.554478 -0.178936767,133.240459 1.6402537,136.175017 C3.62048725,128.385101 7.4661366,119.062694 11.3937986,112.040506" id="Fill-74" fill="#666666"></path>
                            <path d="M60.4092016,93.3869488 C57.7490084,94.5667001 55.3900253,97.2715319 55.3900253,97.2715319 C55.3900253,97.2715319 59.0969987,96.7083341 60.5255105,95.9821052 C60.5255105,95.9821052 60.6955005,95.085435 60.4092016,93.3869488" id="Fill-76" fill="#000000"></path>
                            <path d="M120.03302,93.7002647 C117.034338,97.7463966 109.253571,103.033046 105.141008,108.706523 C101.029935,114.384447 93.3684594,125.52539 93.3684594,125.52539 L93.8456241,128.212436 C99.9727173,124.645023 108.425988,118.015591 108.487125,117.968164 L108.484143,117.969646 C116.970219,108.335998 125.131227,98.033924 125.131227,98.033924 L141.259394,73.2917529 L140.488475,68.2703994 C135.102478,74.6567667 123.874196,88.5173623 120.03302,93.7002647" id="Fill-78" fill="#D9D9D9"></path>
                            <path d="M44.7406036,162.154741 C44.2708946,161.216572 38.224323,158.052289 33.9611546,155.898798 C33.9074735,157.263812 33.7270456,158.665878 33.4392557,160.073873 C36.4916187,161.836089 44.2872972,164.200038 44.2872972,164.200038 C44.915067,163.577556 45.3132013,163.292993 44.7406036,162.154741" id="Fill-80" fill="#666666"></path>
                            <path d="M45.5968161,129.55507 C45.5968161,129.55507 37.9666541,135.283385 31.5845761,139.368052 C25.2755639,143.400845 21.744545,145.136384 18.4297414,146.617001 L28.6052789,148.047227 L34.5579087,147.140182 L39.4056039,143.228922 L45.6326034,131.877521 L45.5968161,129.55507 Z" id="Fill-82" fill="#636363"></path>
                            <path d="M140.488027,68.270844 L125.130779,98.0343686 C125.130779,98.0343686 106.746518,121.241084 96.4680916,130.575348 C86.1911566,139.912575 76.6001459,147.364572 70.8890807,150.89938 C65.182489,154.438634 58.9032996,157.165697 52.0500215,155.009242 C45.1997256,152.851305 42.2099904,149.572901 42.2099904,149.572901 C42.2099904,149.572901 39.4409439,146.822124 40.3475569,143.831247 C41.2511876,140.841852 47.3245997,130.573866 47.3245997,130.573866 C47.3245997,130.573866 46.7221792,131.058512 45.6336472,131.878113 L39.4051566,143.229514 L34.5574613,147.140775 L28.6063227,148.04782 L21.1431684,146.998494 C20.5869733,147.26379 20.0277959,147.524639 19.4686185,147.775114 C22.1929307,149.412834 28.6018493,153.227758 31.6124604,154.724679 C35.492406,156.654373 44.1708392,161.02212 44.7404545,162.154444 C45.3130522,163.292697 44.9149179,163.57726 44.287148,164.199742 C44.287148,164.199742 47.1337338,164.656229 53.4442371,162.441972 C59.7562316,160.227715 73.2301701,153.87099 78.4849465,150.239846 C83.7382317,146.607219 102.551942,130.662792 108.204852,125.044152 C113.85329,119.42403 125.670572,104.68455 129.012216,99.4142033 C132.35386,94.1468213 141.260438,73.2921975 141.260438,73.2921975 L140.488027,68.270844 Z" id="Fill-84" fill="#494949"></path>
                            <polygon id="Fill-86" fill="#515151" points="28.6060245 148.047227 34.5571631 147.140182 39.4048584 143.228922 45.633349 131.877521 45.5975616 129.55507 36.1914523 142.802077"></polygon>
                            <g id="Group-98" transform="translate(2.121622, 86.472727)">
                                <mask id="mask-5" fill="white">
                                    <use xlink:href="#path-4"></use>
                                </mask>
                                <g id="Clip-97"></g>
                            </g>
                            <g id="Group-101" transform="translate(25.349375, 75.587081)">
                                <path d="M35.1759861,20.3951729 C35.1759861,20.3951729 35.5219305,18.5736724 34.4035757,15.1959674 C33.2867121,11.8167803 30.2910124,8.48353822 28.099037,6.79839095 L15.4496987,0.489092874 L4.49876855,0.120050069 C4.49876855,0.120050069 2.83465662,0.228243341 2.36047418,0.875920875 C1.88330947,1.51915211 0.612858427,3.511094 0.612858427,3.511094 C0.612858427,3.511094 0.360855813,4.14395054 0.612858427,4.58858042 C0.860387621,5.03765661 4.49131285,11.0668379 4.49131285,11.0668379 C4.49131285,11.0668379 5.4053815,12.8557321 6.86222501,13.9925025 C8.31906852,15.1248266 12.9952827,18.4195341 15.5376759,18.8434146 C18.0800692,19.2687772 30.0405009,21.6845995 30.0405009,21.6845995 C30.0405009,21.6845995 33.7474742,21.1214017 35.1759861,20.3951729" id="Fill-99"></path>
                            </g>
                            <path d="M53.7466402,82.6211254 C53.648225,82.541092 53.5483187,82.4595765 53.4484123,82.3854715 L42.282758,76.8172233 C34.9731911,78.2593062 31.2498152,84.0320842 29.8824401,86.7354339 C30.0777794,87.0896557 30.9366759,88.5850943 32.2116003,89.5795831 C33.6684438,90.7119072 38.344658,94.0066147 40.8870512,94.4304952 C41.6370945,94.5564736 43.2132292,94.8558577 45.0532956,95.2145259 C47.6836661,90.0583013 52.3226018,84.3314684 53.7466402,82.6211254" id="Fill-102" fill="#D9D9D9"></path>
                            <path d="M100.100657,102.813547 C100.100657,102.813547 105.792337,99.5499637 107.566794,96.1144567 C109.339759,92.6759856 120.95872,68.5162797 122.112862,65.0778086 C123.267004,61.6393375 123.09254,59.2576034 121.228616,57.406461 C119.3632,55.5568007 112.442821,54.0080066 108.367536,55.9288077 C104.284795,57.852573 81.1318686,68.1620579 78.0258246,71.0743837 C74.9227628,73.9837452 62.6834879,84.186519 62.3271056,86.492666 C61.9722143,88.7973309 60.9985001,94.1032476 62.3271056,96.0759222 C63.6586933,98.053043 66.9287627,103.341174 69.108809,104.489802 C71.2873642,105.635465 75.8994593,108.190604 80.6860178,107.839347 C85.4800321,107.486607 97.6015069,104.452749 100.100657,102.813547" id="Fill-104" fill="#494949"></path>
                            <path d="M74.2153661,99.0084045 C73.861966,96.6103673 75.5424805,93.2934283 73.72329,90.5530261 C72.6780011,88.9849647 67.4813791,86.6521399 63.2361043,84.9492075 C62.7127143,85.6072597 62.3801901,86.1422977 62.3265091,86.4920732 C61.9716178,88.7967381 60.9993947,94.1026547 62.3265091,96.0753293 C63.6580969,98.0524502 66.9281663,103.342064 69.1082126,104.489209 C71.0645879,105.519268 74.9892676,107.683134 79.2419981,107.856539 C76.7905644,104.908643 74.4852624,100.823976 74.2153661,99.0084045" id="Fill-106" fill="#333333"></path>
                            <path d="M121.228467,57.4061646 C121.122596,57.3053818 121.001813,57.2016348 120.867611,57.0993699 C118.492225,61.5515972 110.061321,77.2707458 108.011004,79.9859523 C105.613252,83.1531992 94.1702453,86.4464245 89.1152816,87.8840611 C84.0588268,89.3231799 75.7412494,91.2869619 72.5263522,89.4521225 C73.0825473,89.8448789 73.4985753,90.2154038 73.7237374,90.5533226 C75.5414367,93.2922426 73.8609222,96.6106637 74.2158135,99.0087009 C74.4842186,100.824273 76.7895206,104.908939 79.2454278,107.858318 C79.7255747,107.877585 80.2027395,107.873139 80.6873599,107.83905 C85.4798829,107.487793 97.6013578,104.453935 100.100508,102.813251 C100.100508,102.813251 105.792188,99.5511493 107.566645,96.1141603 C109.33961,92.6756892 120.95857,68.5159833 122.112713,65.0775122 C123.266855,61.6390411 123.092391,59.2587891 121.228467,57.4061646" id="Fill-108" fill="#3F3F3F"></path>
                            <path d="M106.676732,97.4576836 C103.5856,98.7145041 98.9958716,100.272191 95.0547893,100.396687 C88.007663,100.623448 78.7059334,99.4214656 74.2325142,98.8419647 C69.864966,98.2698742 64.881577,96.0852594 61.7263254,94.1555657 C61.744219,94.3082219 61.7680773,94.4534677 61.7889532,94.5957493 C64.9949036,96.5046936 69.8858419,98.6181676 74.1937446,99.1769192 C78.2943788,99.7104751 86.4524043,100.76573 93.2341077,100.76573 C93.855913,100.76573 94.4687714,100.759802 95.0667185,100.739052 C98.807988,100.619002 103.121855,99.2228643 106.217461,98.0075426 C106.379996,97.8282085 106.530601,97.6429461 106.676732,97.4576836" id="Fill-110" fill-opacity="0.2" fill="#000000"></path>
                            <path d="M27.710446,76.4628533 C28.1831373,75.8151757 29.8487403,75.7069825 29.8487403,75.7069825 L24.5223892,70.4218152 C24.5223892,70.4218152 24.9056121,69.6733549 24.5223892,69.3072763 C24.0690828,68.8730211 23.453242,69.1872262 23.453242,69.1872262 C23.453242,69.1872262 22.3348873,67.9422625 21.31793,68.6610809 C20.3009727,69.3754529 21.5937908,70.6604332 21.5937908,70.6604332 C21.5937908,70.6604332 21.0882944,71.3940726 21.5937908,71.7838648 C22.1007783,72.1751391 22.513824,71.7675617 22.513824,71.7675617 L27.2079319,77.1831537 C27.4077446,76.8941442 27.5866814,76.6332947 27.710446,76.4628533" id="Fill-112" fill="#505050"></path>
                            <path d="M27.710446,76.4628533 C27.7760561,76.3724452 27.8655245,76.2909297 27.9788511,76.221271 L23.1207179,70.6337555 C22.5600493,71.0798674 22.513824,71.7675617 22.513824,71.7675617 L27.2079319,77.1831537 C27.4077446,76.8941442 27.5866814,76.6332947 27.710446,76.4628533" id="Fill-114" fill="#3D3D3D"></path>
                            <path d="M42.1660018,94.6627402 L45.3838813,89.8133102 C45.3838813,89.8133102 46.1339246,88.8884801 45.1915243,88.426065 C44.2521063,87.9562394 42.0884625,87.3026335 42.0884625,87.3026335 C42.0884625,87.3026335 41.1475534,86.83429 40.3035683,86.9721252 C39.4551098,87.1114426 37.2094533,86.863932 36.149253,86.0057963 C35.0890527,85.1417322 34.8519614,83.2579836 34.506017,82.7614802 C34.3151511,82.4887739 33.9199991,81.9715211 33.5994041,81.5580153 C31.7339883,83.4462102 30.5366031,85.4411163 29.8834839,86.7349893 C30.0788232,87.0906932 30.9377197,88.5846496 32.211153,89.5791385 C33.6694876,90.7114626 38.3442107,94.00617 40.888095,94.4315326 C41.1922876,94.481924 41.6306826,94.5619574 42.1660018,94.6627402" id="Fill-116" fill="#FFFFFF"></path>
                            <path d="M19.6213112,130.718074 L19.0009971,131.79556 C19.0009971,131.79556 21.2049016,132.693713 26.1703969,133.052381 L26.7936933,132.044553 C22.9629553,131.650315 20.6457242,131.038208 19.6213112,130.718074" id="Fill-118" fill="#4E4E4E"></path>
                            <path d="M28.5651672,129.191067 L29.149694,128.255862 C29.149694,128.255862 26.4417843,127.89423 21.8893347,126.775244 L21.2272687,127.92239 C22.3814108,128.260308 24.7746901,128.839809 28.5651672,129.191067" id="Fill-120" fill="#4E4E4E"></path>
                            <path d="M20.7032822,128.834325 L20.1485782,129.803619 C21.256495,130.134127 23.6274072,130.718074 27.3955172,131.076742 L27.9636415,130.160805 C24.1150099,129.775459 21.7694471,129.167798 20.7032822,128.834325" id="Fill-122" fill="#4E4E4E"></path>
                            <path d="M42.1660018,94.6627402 C42.2823107,94.6849717 42.4060753,94.7057211 42.5283487,94.7279526 L45.6612333,90.0133937 C45.7417549,89.9066825 46.1055929,89.408697 45.9863018,88.8692128 C45.9385853,88.6483799 45.7924536,88.3386211 45.348094,88.1177882 C44.4340253,87.6642658 42.4716854,87.0610512 42.2152094,86.983982 C42.0675866,86.9128413 41.3742066,86.6075287 40.6360924,86.6075287 C40.5018899,86.6075287 40.3706696,86.6193855 40.2454138,86.6386528 C40.1186669,86.6608843 39.9546416,86.6682948 39.7607934,86.6682948 C38.6692791,86.6682948 37.109547,86.3422329 36.3654683,85.7390184 C35.7302427,85.2232477 35.4051743,84.2272767 35.1695742,83.5040121 C35.0383539,83.0949526 34.9280096,82.7688907 34.7863513,82.5658431 C34.5895209,82.2842441 34.1794574,81.7506883 33.8693004,81.3505214 L33.6277357,81.0452089 L33.3548572,81.3223615 C31.5550515,83.1408977 30.3770511,85.0453957 29.6791977,86.388178 C29.7820864,86.5541731 29.8402408,86.6534738 29.8402408,86.6534738 C29.8402408,86.6534738 29.8536611,86.6831158 29.8834839,86.7349893 C30.5366031,85.4411163 31.7339883,83.4462102 33.5994041,81.5580153 C33.9199991,81.9715211 34.3151511,82.4887739 34.506017,82.7614802 C34.8519614,83.2579836 35.0890527,85.1417322 36.149253,86.0057963 C37.0305166,86.7186862 38.7229602,87.0106598 39.7607934,87.0106598 C39.9710441,87.0106598 40.1574366,86.998803 40.3035683,86.9721252 C40.4094392,86.9558221 40.5227658,86.9498937 40.6360924,86.9498937 C41.37868,86.9498937 42.0884625,87.3026335 42.0884625,87.3026335 C42.0884625,87.3026335 44.2521063,87.9562394 45.1915243,88.426065 C46.1339246,88.8884801 45.3838813,89.8133102 45.3838813,89.8133102 L42.1660018,94.6627402 Z" id="Fill-124" fill="#949B9F"></path>
                            <path d="M44.4332797,79.6890877 C47.9821923,81.6839938 52.8283964,83.8626802 55.375263,84.1087088 C54.7087236,83.4343535 54.0496398,82.8459599 53.4487105,82.3850269 L40.7978811,76.0757288 C40.7978811,76.0757288 40.2894024,77.357745 44.4332797,79.6890877" id="Fill-126" fill-opacity="0.2" fill="#000000"></path>
                            <path d="M23.4524965,69.1869298 C23.4524965,69.1869298 22.3460708,67.9612334 21.3365692,68.6489276 C22.0940682,68.9245982 22.6442987,69.3751565 22.6442987,69.3751565 C22.9052482,69.2165718 23.4524965,69.1869298 23.4524965,69.1869298" id="Fill-128" fill="#5A6567"></path>
                            <path d="M2.44845143,130.575496 C2.44845143,130.575496 5.3263511,122.804848 7.3721948,117.623427 C4.66130278,121.542099 1.39868906,126.587166 0.401116586,129.555812 C0.401116586,129.555812 0.338488717,129.948568 0.317612761,130.575496 L2.44845143,130.575496 Z" id="Fill-130" fill="#F09041"></path>
                            <path d="M21.8128392,105.606267 C21.8128392,105.606267 22.6284927,109.468619 25.8836507,111.147838 C29.1373176,112.821128 31.9421514,113.038997 35.3180917,113.216849 L35.0780182,117.408227 C35.0780182,117.408227 30.2556724,120.945998 26.6381674,122.442919 C23.0221536,123.93984 20.487216,124.719424 18.3161166,123.461121 C16.1465083,122.202819 17.1739036,116.269974 18.0178886,113.038997 C18.8603826,109.802091 21.8128392,105.606267 21.8128392,105.606267" id="Fill-132" fill="#D9D9D9"></path>
                            <path d="M33.0880923,115.792738 L33.0880923,117.592007 C33.0880923,117.592007 24.0174893,123.521888 19.47846,122.145017 C14.9409218,120.7637 19.47846,110.636513 19.47846,110.636513 L20.4342806,109.686488 C20.4342806,109.686488 18.677718,115.85054 22.1118127,117.528277 C25.550381,119.207496 33.0880923,115.792738 33.0880923,115.792738" id="Fill-134" fill="#FFFFFF"></path>
                            <polygon id="Fill-136" fill="#F09041" points="40.4492526 136.809207 39.7245587 136.120031 25.640744 144.73103 28.3680386 148.016844 28.6066209 148.047968 34.5577596 147.140923 39.4054548 143.229663 42.5353571 137.523579"></polygon>
                            <polygon id="Fill-138" fill="#D77728" points="39.4051566 143.22907 42.53655 137.522986 40.4489544 136.808614 36.1917505 142.802225 28.6063227 148.047376 34.5574613 147.140331"></polygon>
                            <polygon id="Fill-140" fill="#D77728" points="140.552146 68.6855355 136.277049 76.325759 138.482444 77.5529375 141.260438 73.2919011"></polygon>
                            <path d="M151.566748,13.8391052 C153.066835,14.6009044 153.150339,15.9881496 151.748667,16.9189082 L117.524028,39.7610275 C116.123848,40.6947503 113.790214,40.7718195 112.333371,39.9344332 L87.2464362,25.5402817 C85.7866104,24.7014133 85.7672256,23.297865 87.1927551,22.4174978 L121.304067,1.3805758 C122.731088,0.500208622 125.130332,0.402390047 126.627436,1.16122505 L151.566748,13.8391052 Z" id="Fill-142" fill="#FFFFFF"></path>
                            <path d="M156.730416,34.5545598 L152.728197,15.1968567 C152.819156,15.7896965 152.501544,16.4166246 151.748518,16.9190564 L117.523879,39.7611758 C116.12519,40.6948985 113.790065,40.7719677 112.334713,39.9345814 L87.2462871,25.5404299 C86.4485273,25.080979 86.0846892,24.4570151 86.1443348,23.8374974 L82.1629917,44.1748684 L82.1629917,58.1273542 C82.1003639,58.8150485 82.5119184,59.5116353 83.3961643,60.0229597 L111.481781,76.1422751 C113.113088,77.07748 115.728547,76.988554 117.295735,75.9436738 L155.612061,50.3715269 C156.451573,49.8098112 156.807955,49.1087781 156.711031,48.4433153 L156.730416,34.5545598 Z" id="Fill-145" fill="#F2F2F2"></path>
                            <path d="M156.730416,34.6992127 C156.730416,35.2994631 156.363596,35.9145344 155.612061,36.414002 L117.295735,61.9905951 C115.728547,63.0325111 113.113088,63.119955 111.481781,62.1832681 L83.3961643,46.0639526 C82.6297185,45.623769 82.219655,45.0442681 82.1629917,44.4543924 L82.1629917,58.1282435 C82.1003639,58.8144556 82.5119184,59.5110424 83.3961643,60.0223668 L111.481781,76.1416823 C113.113088,77.0768871 115.728547,76.9879612 117.295735,75.944563 L155.612061,50.3724162 C156.451573,49.8092183 156.807955,49.1081852 156.711031,48.4427225 L156.730416,34.6992127 Z" id="Fill-148" fill="#D9D9D9"></path>
                            <path d="M115.240646,40.4945186 C114.210268,40.5789983 113.138139,40.3981822 112.334415,39.934285 L87.24748,25.5401335 C86.4482291,25.0821647 86.084391,24.4567187 86.1440366,23.837201 L82.1626935,44.174572 L82.1626935,58.1270578 C82.1000656,58.814752 82.5116202,59.5113389 83.3973572,60.0226632 L111.481483,76.1419787 C112.425374,76.6829451 113.703281,76.8741359 114.911104,76.7496395 L114.952856,76.7348185 L114.547266,62.8297599 L115.240646,40.4945186 Z" id="Fill-151" fill-opacity="0.2" fill="#000000"></path>
                            <g id="Group-6" transform="translate(18.033784, 51.672727)">
                                <path d="M53.1468148,25.4096436 L43.4454597,24.0446299 C42.914614,23.9690428 42.4836746,24.344014 42.4836746,24.8746057 L42.4836746,29.878174 C41.9379175,30.2842693 40.6406259,31.277276 40.6406259,31.277276 L40.6450993,31.2935791 L36.8352373,33.1625067 C36.4654347,33.2884852 35.81828,33.7360793 35.8436294,34.6342317 C35.8540674,34.9736325 35.8555585,35.3930667 35.8555585,35.7798947 C35.7824927,35.8643743 35.7377585,35.9740497 35.7377585,36.0926177 L35.7377585,37.6562328 C35.7377585,37.9230107 35.9509915,38.1393973 36.2193966,38.1393973 L36.2372903,38.1393973 C36.5042043,38.1393973 36.7204196,37.9230107 36.7204196,37.6562328 L36.7204196,36.0926177 C36.7204196,35.9429256 36.650336,35.8080546 36.5399917,35.7191286 C36.5399917,35.3456395 36.5399917,34.9469547 36.5280625,34.6164465 C36.51166,34.0043393 37.0067184,33.8235232 37.0648728,33.8072201 L40.8747348,31.9427388 L40.876226,31.9545955 C40.876226,31.9545955 43.0294317,31.1498155 45.0648375,31.2669013 L53.1468148,32.5815237 C53.6761694,32.6674855 54.1071088,32.3014069 54.1071088,31.7737794 L54.1071088,26.5123257 C54.1071088,25.9787699 53.6761694,25.4837486 53.1468148,25.4096436" id="Fill-153" fill="#404B4D"></path>
                                <path d="M53.1468148,25.4096436 L43.4454597,24.0446299 C42.9489102,23.9764533 42.541829,24.3025152 42.4911303,24.7827155 C42.5716518,24.775305 42.6506822,24.7723408 42.7386595,24.7797513 L52.4400145,26.1477292 C52.9663869,26.2218342 53.4003085,26.7168555 53.4003085,27.2474472 L53.4003085,32.5089008 C53.4003085,32.5355786 53.3928528,32.5622564 53.3913617,32.5844879 C53.799934,32.5429891 54.1071088,32.2169272 54.1071088,31.7737794 L54.1071088,26.5123257 C54.1071088,25.9787699 53.6761694,25.4837486 53.1468148,25.4096436" id="Fill-155" fill="#5A6567"></path>
                                <path d="M48.4899854,48.6325144 C48.3885879,48.6325144 48.2886815,48.6621563 48.2021954,48.702173 C47.7533624,48.2234549 47.2747065,47.7847534 46.7707013,47.3712476 C46.1026707,46.8243528 45.3899059,46.3293315 44.6428449,45.8876659 C43.1457406,45.0058166 41.5025047,44.3522107 39.7847117,43.9639006 L39.7847117,43.9624185 C39.766818,43.9624185 39.7533978,43.955008 39.7384864,43.955008 C39.4178913,43.9075808 39.1196634,44.1284136 39.0764203,44.447065 C39.030195,44.7627522 39.2568482,45.0532438 39.5759521,45.1021531 C41.196821,45.3333606 42.7908494,45.8209714 44.2879537,46.5397897 C45.0335235,46.901422 45.7582174,47.3208562 46.4456328,47.793646 C46.9615672,48.1523141 47.4640813,48.5361779 47.9278257,48.9615405 C47.8711624,49.0578769 47.8398485,49.1660702 47.8398485,49.281674 C47.8398485,49.6403421 48.1321119,49.9278694 48.4899854,49.9278694 C48.8493501,49.9278694 49.1416135,49.6403421 49.1416135,49.281674 C49.1416135,48.9215238 48.8493501,48.6325144 48.4899854,48.6325144" id="Fill-157" fill="#9FA2A4"></path>
                                <path d="M15.7576791,22.7449767 L15.4609423,22.7835113 C15.4698891,19.3153982 14.0726912,15.1240205 13.9250684,14.6868011 C13.8758608,13.7012048 13.7252556,10.5443327 13.7476227,9.13633802 C13.7834101,7.45860125 13.6849949,6.35295493 13.2093213,5.08427766 C12.7321566,3.81708248 11.0740092,0.464573142 11.0740092,0.464573142 C11.0740092,0.464573142 10.1495026,0.621675702 10.089857,1.76141031 C10.025738,2.90262702 10.2479178,7.20219801 10.2479178,7.20219801 C10.2479178,7.20219801 11.2857511,9.48314933 12.0089538,11.412843 C12.5010299,12.7245012 12.9617921,13.9072167 13.3002808,14.8690993 L13.2630023,14.8809561 C13.2823871,14.9269012 14.8078231,19.3806106 14.775018,22.8694731 L14.7675623,22.8694731 C14.7675623,22.8694731 14.3530255,23.2518548 14.3530255,25.5920901 C14.3530255,25.5920901 15.116489,25.6884266 15.8829348,25.0244459 L15.7576791,22.7449767 Z" id="Fill-159" fill="#494949"></path>
                                <path d="M13.9404271,14.9915208 C13.9404271,14.9915208 13.7197384,10.8119998 13.7480701,9.13574518 C13.7838574,7.45800841 13.6854422,6.35384419 13.2097686,5.08516692 C12.7311128,3.81648964 11.0744566,0.463980303 11.0744566,0.463980303 C11.0744566,0.463980303 10.3900234,0.582548272 10.1603879,1.34434748 C10.2990639,1.27913509 10.3974791,1.2598678 10.3974791,1.2598678 C10.3974791,1.2598678 12.0586088,4.61534134 12.5327912,5.88253651 C13.0114471,7.14824959 13.10688,8.2568601 13.0740749,9.93163267 C13.0546901,11.0417253 13.1441585,13.2456074 13.2052952,14.607657 C13.4095814,15.1753011 13.5795713,15.6673582 13.6854422,16.0675251 C13.9732322,17.1094411 13.9404271,14.9915208 13.9404271,14.9915208" id="Fill-161" fill="#646464"></path>
                                <path d="M8.98790474,25.793211 C8.10216774,24.6594048 6.95548129,23.7790376 5.75064039,23.0898613 C5.03340219,22.6793197 4.28634118,22.3325084 3.52436879,22.0360885 C2.94878885,21.8108093 2.36724436,21.6136901 1.77227961,21.449177 C1.74394795,21.1171867 1.46659597,20.8563372 1.12512497,20.8563372 C0.767251434,20.8563372 0.472005769,21.1483108 0.472005769,21.5069789 C0.472005769,21.8626828 0.767251434,22.1516922 1.12512497,22.1516922 C1.33984909,22.1516922 1.52773269,22.0479453 1.64851501,21.8908427 C2.20918355,22.0775873 2.7668698,22.296938 3.30964466,22.5400023 C4.03135629,22.8631001 4.73666538,23.233625 5.4017137,23.6589876 C6.61699257,24.4356078 7.71894483,25.4049009 8.47047925,26.581688 C8.63450462,26.3356595 8.81344139,26.061471 8.98790474,25.793211" id="Fill-163" fill="#9FA2A4"></path>
                            </g>
                            <g id="biker-body" transform="translate(16.972973, 16.795710)">
                                <path d="M39.6879507,107.854204 C39.488138,107.253953 39.3777937,106.487708 39.5283988,105.68441 C39.8803078,103.791769 38.4652162,99.2046703 37.1962563,97.4217044 C35.9287875,95.6328102 36.499894,100.777178 34.5420275,101.224772 C34.5315896,101.224772 34.5196605,101.224772 34.5077313,101.2307 C34.20503,106.134968 33.6816399,106.22834 32.5200421,108.725678 C31.7342114,110.41379 30.0760641,112.949662 28.8935903,114.680754 C29.9970337,114.170912 30.9588188,113.714426 31.6715836,113.367614 C33.2566651,112.598405 36.9308334,110.848045 38.9453632,109.892091 C38.9453632,109.892091 40.1472218,109.245895 39.6879507,107.854204" id="Fill-165" fill="#B7B7B7"></path>
                                <path d="M39.6879507,107.854204 C39.488138,107.253953 39.3777937,106.487708 39.5283988,105.68441 C39.7207558,104.658797 39.3897228,102.849153 38.8499302,101.116579 C35.6231039,102.20444 34.9908606,107.831972 32.6214396,108.50781 C32.5886345,108.580432 32.5573206,108.648609 32.5200421,108.725678 C31.7342114,110.41379 30.0760641,112.949662 28.8935903,114.680754 C29.9970337,114.170912 30.9588188,113.714426 31.6715836,113.367614 C33.2566651,112.598405 36.9308334,110.848045 38.9453632,109.892091 C38.9453632,109.892091 40.1472218,109.245895 39.6879507,107.854204" id="Fill-167" fill="#8A8A91"></path>
                                <path d="M39.6879507,107.854204 C39.5641861,107.489607 39.488138,107.058316 39.4702443,106.604794 C39.0914948,107.270256 38.5293352,107.957951 37.6808767,108.498917 C36.009309,109.571957 33.5444551,109.957303 31.3778291,110.83767 C30.5860339,112.159703 29.6436336,113.582519 28.8935903,114.680754 C29.9970337,114.170912 30.9588188,113.714426 31.6715836,113.367614 C33.2566651,112.598405 36.9308334,110.848045 38.9453632,109.892091 C38.9453632,109.892091 40.1472218,109.245895 39.6879507,107.854204" id="Fill-169" fill="#47474D"></path>
                                <path d="M67.9134364,44.1557852 C67.9134364,44.1557852 60.4666846,42.1875569 59.0381727,36.3406739 L56.8894404,42.264626 C56.8894404,42.264626 37.4151556,49.3742579 29.8655151,57.5154311 C28.9067123,58.5469725 28.0716741,59.4866236 27.3380333,60.3521698 L34.2703419,63.8128724 C35.9806792,65.1289769 38.1368672,67.3669473 39.6772145,69.8850345 C45.0423353,68.5215029 54.7600928,65.9915588 57.3695874,64.8607168 C61.0228797,63.2822807 70.7212525,47.0088269 70.7212525,47.0088269 L67.9134364,44.1557852 Z" id="Fill-171" fill="#27272B"></path>
                                <path d="M48.9595593,7.6497448 C48.9595593,7.6497448 40.9745061,6.8686783 36.37434,12.2383252 C31.7786474,17.6139005 23.9292879,23.8461294 21.5285529,27.1349085 C18.0705999,31.8687347 11.7034333,49.7339635 11.7034333,49.7339635 C11.7034333,49.7339635 14.0132087,51.9452561 14.6051912,54.1847086 C14.6051912,54.1847086 18.9309875,49.5694504 19.7198005,48.0947613 C20.4981754,46.6111796 30.6871331,31.8494674 30.6871331,31.8494674 C30.6871331,31.8494674 46.2993661,21.3932546 49.9034508,19.0604298 C53.5090266,16.7290871 48.9595593,7.6497448 48.9595593,7.6497448" id="Fill-173" fill="#505051"></path>
                                <path d="M23.0800838,42.9668448 C26.3188393,38.1841094 30.6878787,31.8496156 30.6878787,31.8496156 C30.6878787,31.8496156 46.1301217,21.5090065 49.8415685,19.0991126 L51.2611335,15.0514985 C51.2328018,14.7106156 51.1835942,14.3652864 51.1254398,14.0155109 C49.7655203,14.2956277 46.165909,15.1226393 44.6777516,16.2297677 C42.8227738,17.6066383 37.9333266,18.9168143 35.8159082,22.4012305 C33.6969987,25.8812004 29.2772605,28.8528102 28.3870501,28.9269151 C27.4908751,29.0010201 24.7516515,28.6779224 26.1205177,30.3689981 C27.4908751,32.0526632 28.2916172,33.5644049 27.0524801,34.8375284 C26.3680469,35.5444899 24.511578,39.3401471 23.0800838,42.9668448" id="Fill-175" fill-opacity="0.1" fill="#000000"></path>
                                <path d="M6.08198565,57.329724 C6.60239342,56.6183162 8.42009274,56.5027125 8.42009274,56.5027125 L11.2547494,56.5946026 L14.6053403,54.1847086 C14.772348,51.8963468 11.7035824,49.7339635 11.7035824,49.7339635 C11.7035824,49.7339635 7.52839118,50.3697842 6.3727579,50.157844 C5.21861575,49.9488679 4.07491158,50.157844 2.19756667,50.9433568 C0.321712895,51.719977 0.921151065,54.1847086 0.921151065,54.1847086 C1.51760695,56.9992158 3.76922794,58.1745208 5.18581068,58.6413822 C5.52579053,58.1241294 5.87322609,57.6068767 6.08198565,57.329724" id="Fill-177" fill="#B0795D"></path>
                                <path d="M61.8905739,112.342446 C61.8905739,112.342446 61.7504068,114.395154 60.8765989,114.42776 C59.9983176,114.460366 58.7129551,112.311322 57.2889167,112.342446 C55.8738251,112.376534 54.9403716,112.212021 54.5273259,115.468194 C54.1142802,118.728813 52.0550163,122.125786 50.4073069,124.187386 C48.7551241,126.247505 46.0770371,128.977532 45.6446066,131.280715 C45.2196318,133.579451 44.8990367,135.512109 47.9036833,135.821868 C50.9053475,136.137555 54.1470853,136.468064 56.6850051,134.41832 C59.2199427,132.370058 63.5800352,125.779161 64.3897241,124.197761 C65.2053775,122.625253 65.9509474,120.336891 65.1531876,118.207114 C64.3599013,116.075855 62.6003564,114.796803 61.8905739,112.342446" id="Fill-179" fill="#DFE6EA"></path>
                                <path d="M61.8905739,112.342446 C61.8905739,112.342446 61.7504068,114.395154 60.8765989,114.42776 C59.9983176,114.460366 58.7129551,112.311322 57.2889167,112.342446 C55.8738251,112.376534 54.9403716,112.212021 54.5273259,115.468194 C54.1142802,118.728813 52.0550163,122.125786 50.4073069,124.187386 C48.7551241,126.247505 46.0770371,128.977532 45.6446066,131.280715 C45.2196318,133.579451 44.8990367,135.512109 47.9036833,135.821868 C50.9053475,136.137555 54.1470853,136.468064 56.6850051,134.41832 C59.2199427,132.370058 63.5800352,125.779161 64.3897241,124.197761 C65.2053775,122.625253 65.9509474,120.336891 65.1531876,118.207114 C64.3599013,116.075855 62.6003564,114.796803 61.8905739,112.342446" id="Fill-181" fill="#8A8A91"></path>
                                <path d="M64.3894258,124.197909 C65.2050793,122.625401 65.9506491,120.337039 65.1528894,118.207262 C64.6101145,116.748876 63.6155243,115.680282 62.8103089,114.36566 C62.1214023,116.95637 63.110028,121.555325 62.8803924,122.526101 C62.5433949,123.985969 59.8682902,128.500444 58.0371706,129.585341 C56.206051,130.670238 54.8178,129.724658 51.488085,128.107688 C49.8687072,127.325139 48.4521245,127.477795 47.4157824,127.846838 C46.5568859,129.011769 45.8485945,130.190038 45.6457995,131.280863 C45.2208247,133.5796 44.9002296,135.512257 47.9033851,135.822016 C50.9050493,136.137704 54.1467871,136.468212 56.6847069,134.418468 C59.2196444,132.370206 63.579737,125.779309 64.3894258,124.197909" id="Fill-183" fill="#47474D"></path>
                                <path d="M65.152442,118.207262 C65.0480623,117.928628 64.9272799,117.657403 64.7900951,117.402482 C64.8616698,118.463666 64.8795635,120.113242 64.6648394,120.907648 C64.3442443,122.103702 62.7054818,123.437592 62.1880563,125.143489 C61.6706308,126.852349 58.6108121,133.670008 54.5564032,134.471824 C51.0537159,135.158036 47.8462744,135.09727 45.3799293,133.631473 C45.441066,134.793439 46.0151548,135.627861 47.9044289,135.822016 C50.904602,136.137704 54.1463397,136.468212 56.6842595,134.418468 C59.2191971,132.370206 63.5792896,125.779309 64.3889785,124.197909 C65.2046319,122.625401 65.9502018,120.337039 65.152442,118.207262" id="Fill-185" fill="#47474D"></path>
                                <path d="M53.877189,125.553289 C55.8156707,125.991991 57.7899397,127.238436 59.3377427,128.433009 C59.7000896,128.026913 60.0684012,127.564498 60.4232924,127.069477 C58.7174286,125.760783 56.5045772,124.372056 54.2574296,123.865178 C53.0287305,123.589507 51.8447656,123.585061 50.7562336,123.72586 C50.6384335,123.879999 50.5191424,124.047476 50.4073069,124.188275 C49.9733852,124.72776 49.4678889,125.316153 48.9534456,125.92826 C50.3178385,125.461399 52.0565074,125.142748 53.877189,125.553289" id="Fill-187" fill-opacity="0.2" fill="#000000"></path>
                                <path d="M55.5590455,122.576788 C57.6302386,123.045132 59.7491481,124.436823 61.3372119,125.69809 C61.6637715,125.167499 61.9545438,124.6458 62.1990907,124.164117 C60.48428,122.833192 58.232659,121.404448 55.9437596,120.888677 C54.8090022,120.633756 53.70705,120.611524 52.6871104,120.722682 C52.3098521,121.426679 51.9027709,122.092142 51.4882341,122.699803 C52.6960572,122.390044 54.102202,122.252209 55.5590455,122.576788" id="Fill-189" fill-opacity="0.2" fill="#000000"></path>
                                <path d="M59.7993995,113.835513 C59.0717234,113.211549 58.2128269,112.322289 57.2883203,112.343039 C56.05813,112.374163 55.1873044,112.254113 54.7116308,114.373515 C55.3334361,115.031567 55.8583173,115.769653 55.844897,116.365457 C55.8150742,117.797165 55.108274,121.663963 53.7826508,123.349111 C52.7880606,124.617788 51.1448246,126.735708 50.391799,127.709448 C50.7451991,127.799856 51.1090372,127.921388 51.4877867,128.10665 C51.6980374,128.210397 51.9038147,128.312662 52.099154,128.408999 C53.7707216,126.526732 56.5725732,123.104564 56.848434,121.149675 C57.1794671,118.766459 58.021961,114.634365 59.7993995,113.835513" id="Fill-191" fill="#B7B7B7"></path>
                                <path d="M54.5659465,127.568796 C54.5048097,127.568796 54.4391996,127.545083 54.3914831,127.506548 C53.2880397,126.515024 50.4056666,126.295673 50.3728616,126.295673 C50.2312033,126.283816 50.1193678,126.156355 50.1298058,126.014074 C50.143226,125.868828 50.2684818,125.769527 50.41014,125.776938 C50.5383781,125.784348 53.5027638,126.01111 54.7374275,127.115274 C54.8462807,127.214575 54.8567187,127.376123 54.7597946,127.484317 C54.7090959,127.539154 54.6390123,127.568796 54.5659465,127.568796" id="Fill-193" fill="#47474D"></path>
                                <path d="M55.8328188,125.738552 C55.7686998,125.738552 55.7090542,125.71632 55.6583554,125.668893 C54.5519297,124.684779 51.6695567,124.458017 51.6397339,124.458017 C51.4950933,124.447643 51.3877312,124.327593 51.3996604,124.183829 C51.4086072,124.038583 51.5398275,123.937801 51.6785035,123.937801 C51.8052504,123.949657 54.7696361,124.177901 56.0072821,125.285029 C56.1161353,125.379883 56.123591,125.545879 56.0251758,125.651108 C55.9789505,125.70891 55.9029023,125.738552 55.8328188,125.738552" id="Fill-195" fill="#47474D"></path>
                                <path d="M56.8463464,123.891707 C56.7837186,123.891707 56.7255641,123.87244 56.6718831,123.829459 C55.5669486,122.837934 52.6815932,122.618584 52.6517704,122.612655 C52.5071298,122.605245 52.4027501,122.480748 52.4116969,122.335503 C52.4266083,122.196185 52.5548463,122.092438 52.69054,122.096885 C52.8172869,122.107259 55.7861461,122.335503 57.0208098,123.441149 C57.1281718,123.537485 57.1371187,123.700516 57.0387035,123.807228 C56.9880047,123.865029 56.9179211,123.891707 56.8463464,123.891707" id="Fill-197" fill="#47474D"></path>
                                <path d="M58.0228557,121.747405 C57.9706658,121.747405 57.9214582,121.732584 57.8752328,121.70146 C56.7583692,120.91743 54.0176544,120.637313 53.9937961,120.634349 C53.8476645,120.62101 53.7417935,120.493549 53.7611783,120.351268 C53.7701252,120.206022 53.9013455,120.105239 54.0444949,120.117096 C54.1608038,120.131917 56.9477439,120.419444 58.1749519,121.274616 C58.2912608,121.36206 58.3195925,121.520644 58.2405621,121.636248 C58.1853899,121.708871 58.1033772,121.747405 58.0228557,121.747405" id="Fill-199" fill="#47474D"></path>
                                <path d="M58.6928248,119.678394 C58.6406349,119.678394 58.5914273,119.666538 58.5466931,119.635414 C57.4432497,118.86324 54.6056108,118.931416 54.575788,118.932898 C54.4177272,118.928452 54.3073828,118.824705 54.3073828,118.682423 C54.3014183,118.537178 54.4102715,118.421574 54.5564032,118.414163 C54.6846412,118.412681 57.6042928,118.337094 58.844921,119.208569 C58.9657033,119.290084 58.9895616,119.454597 58.9105312,119.570201 C58.855359,119.642824 58.7763286,119.678394 58.6928248,119.678394" id="Fill-201" fill="#47474D"></path>
                                <path d="M59.0538297,117.662294 C59.0046221,117.662294 58.950941,117.647473 58.9017334,117.616349 C57.8042546,116.842693 54.9621423,116.915316 54.9338106,116.915316 C54.7653118,116.919762 54.6683878,116.805641 54.6654055,116.666323 C54.6639143,116.521078 54.7727675,116.401028 54.9188992,116.398063 C55.0426638,116.393617 57.9652977,116.320994 59.2059259,117.188022 C59.323726,117.27102 59.3505665,117.434051 59.2715361,117.551137 C59.2193462,117.628206 59.1358424,117.662294 59.0538297,117.662294" id="Fill-203" fill="#47474D"></path>
                                <path d="M52.4820787,116.393617 C52.4820787,116.393617 52.0526305,120.118133 56.0951102,120.118133 C61.1500739,120.119615 64.9196751,117.027956 64.9196751,117.027956 C64.9196751,117.027956 64.8734498,97.7280544 64.2501534,94.0924641 C63.626857,90.4450169 60.9323675,79.5234248 60.9323675,79.5234248 C60.9323675,79.5234248 78.2758136,68.3987851 80.9732854,66.1326547 C83.6662838,63.8650423 87.8131433,57.9618395 88.2992549,54.5959913 C88.7838753,51.228661 88.6451993,41.6809752 86.2220972,38.2469504 C86.2220972,38.2469504 79.1093608,47.1099061 67.9138837,44.1560816 L65.5638475,53.2932257 C65.5638475,53.2932257 47.1124845,64.9647602 46.903725,73.8929283 C46.6979477,82.8255427 53.2768562,108.845284 52.4820787,116.393617" id="Fill-205" fill="#3E3E41"></path>
                                <path d="M54.7013419,0.043016709 C54.7013419,0.043016709 67.7070626,-0.769173882 75.6026475,8.46727095 C83.5012146,17.7007516 82.6870523,24.9926817 83.5012146,28.6831098 C84.3094123,32.3794662 85.629071,33.5710743 86.611732,36.3396364 C88.3011934,41.1149614 88.521882,46.0874056 88.521882,46.0874056 C88.521882,46.0874056 78.5058965,49.2294568 70.379185,48.9285906 C62.2494912,48.6336527 56.8903351,42.2650707 56.8903351,42.2650707 L57.2690845,36.3396364 C57.2690845,36.3396364 57.4644239,31.9140869 56.0314386,30.9937031 C54.595471,30.070355 46.9205749,25.2031398 46.3390304,16.4305922 C45.7619593,7.65952665 51.9114195,1.30872978 54.7013419,0.043016709" id="Fill-207" fill="#8900FF"></path>
                                <path d="M57.4404165,3.01670139 C57.4404165,3.01670139 64.2951858,5.55553803 63.3647146,8.55827186 C62.440208,11.5580415 55.4691298,20.1008637 57.4404165,26.4472143 C57.4404165,26.4472143 49.3151961,20.2164675 49.1988872,11.6736453 C49.0840695,3.13823355 51.4072652,0.824676048 57.4404165,3.01670139" id="Fill-209" fill-opacity="0.2" fill="#000000"></path>
                                <path d="M86.6123285,36.340081 C85.6296674,33.5715189 84.3100088,32.3799108 83.501811,28.6835544 C82.8800058,25.8779398 83.1991097,20.9884932 79.9186023,14.7473717 C77.995032,17.7204635 74.462522,21.8896097 69.0675785,23.6014348 C69.0675785,23.6014348 65.6334837,28.842139 59.4377982,29.5654037 C59.4377982,29.5654037 54.1904775,28.2922801 49.9034508,25.5000044 C52.3190971,28.6257525 55.2044525,30.4605918 56.0305439,30.9941477 C57.4635292,31.9145316 57.2681899,36.340081 57.2681899,36.340081 L56.8894404,42.2655153 C56.8894404,42.2655153 62.2500877,48.6340974 70.3782903,48.9290352 C78.5050018,49.2299014 88.5209874,46.0878502 88.5209874,46.0878502 C88.5209874,46.0878502 88.3017898,41.115406 86.6123285,36.340081" id="Fill-211" fill="#8900FF"></path>
                                <path d="M58.786021,28.5676542 C58.0404511,27.3730819 57.5558307,26.3800752 57.2352357,25.5604741 C57.2889167,25.8613403 57.3545269,26.1577602 57.441013,26.4467696 C57.441013,26.4467696 57.0846306,26.1770275 56.5254532,25.6657031 C56.8639419,26.5594092 57.3858408,27.6413419 58.1910562,28.9322507 C58.9097856,30.0793958 59.6836871,31.1405791 60.4322392,32.1721205 C62.4318576,34.9199332 64.1571063,37.2898105 63.6963441,39.782702 C63.4339035,41.1892146 62.926916,42.8847365 62.4393133,44.5254208 C62.2380095,45.1819909 62.0650372,45.7763129 61.9084676,46.3232076 C62.1112626,46.4447398 62.3125664,46.5677541 62.531764,46.6833578 C62.7107007,46.0341982 62.9179692,45.3539145 63.1058528,44.7195758 C63.6038934,43.0625885 64.1153544,41.3507634 64.3822684,39.9086805 C64.8982027,37.1252974 63.0924325,34.6427805 60.9943989,31.763061 C60.2533025,30.7448585 59.4913301,29.6910857 58.786021,28.5676542" id="Fill-213" fill="#FFFFFF"></path>
                                <path d="M75.5146702,36.1229534 C74.5320091,32.5095946 67.5609309,33.9768732 64.7814465,34.5623025 C62.001962,35.149214 62.1287089,34.5889803 59.6071916,31.8500602 C58.4232267,30.566562 56.2521273,30.0092925 54.2778583,29.7810492 C55.075618,30.3783353 55.7093524,30.7888769 56.0314386,30.9934066 C57.4644239,31.9152726 57.2690845,36.33934 57.2690845,36.33934 L56.8903351,42.2647742 C56.8903351,42.2647742 62.2494912,48.6333563 70.379185,48.9282941 C72.0790843,48.9935065 73.8654697,48.9060626 75.6205411,48.7252465 C76.9059036,44.894019 76.355673,39.2190595 75.5146702,36.1229534" id="Fill-215" fill-opacity="0.2" fill="#000000"></path>
                            </g>
                            <g id="head" transform="translate(51.979730, 5.272727)">
                                <path d="M15.6901295,25.3557506 L18.3339202,27.2246782 C18.3339202,27.2246782 24.0748081,29.587145 26.7439482,20.8872203 C28.3767462,15.572411 22.1288708,17.8874506 21.4832073,13.3626005 C20.8479818,8.83923246 15.6901295,25.3557506 15.6901295,25.3557506" id="Fill-217" fill="#885433"></path>
                                <path d="M5.17341921,16.7585354 C5.17341921,16.7585354 5.32551546,17.3246974 5.59392061,18.2169214 C6.61236904,21.5338603 9.39334463,29.3815778 13.0421635,29.5757329 C17.6691701,29.8321361 20.7215331,25.5414577 22.8553541,21.5990727 C24.9921573,17.6552056 18.0881804,11.3548001 18.0881804,11.3548001 L5.17341921,16.7585354 Z" id="Fill-219" fill="#B0795D"></path>
                                <path d="M10.9937849,24.9794455 C9.93656683,25.0372474 10.1140125,23.8589782 10.1721669,23.037895 C10.2303214,22.2227402 9.64877686,19.5490325 8.99565766,18.4952597 C8.58261196,17.8223865 8.47226762,17.666766 7.08550767,15.9608693 L5.17386655,16.7582389 C5.17386655,16.7582389 5.32447166,17.324401 5.59436795,18.2181071 C6.61281638,21.5335639 9.39379197,29.3812814 13.0426109,29.5754365 C13.1783046,29.5858111 13.3065426,29.5754365 13.4407452,29.5754365 C12.1494182,28.1066757 11.8511902,26.5297217 11.8511902,26.5297217 C11.8511902,26.5297217 12.0480207,24.9186794 10.9937849,24.9794455" id="Fill-221" fill="#885433"></path>
                                <path d="M20.3163905,19.8956956 C20.3715626,20.8457215 20.2761297,22.1069883 21.495882,22.1603438 C23.0809635,22.222592 25.2147844,19.0064359 25.4593314,18.1764601 C25.9693011,16.4601887 26.4390102,11.867162 25.9514075,9.05413691 C24.964273,3.35249967 20.5415525,0.180806487 14.7290899,0.148200296 C8.02194342,0.118558303 3.15188108,4.72492392 2.99829369,11.7322909 C2.9610152,13.1417677 3.08925321,14.6920439 3.20108869,15.9473822 C7.23163937,17.9408062 12.4088765,18.2387083 17.0627236,17.1923459 C17.0627236,17.1923459 20.1464005,16.9878162 20.3163905,19.8956956" id="Fill-223" fill="#3E3E41"></path>
                                <path d="M3.20183426,15.9479751 C3.20183426,15.9479751 -2.14688393,18.4660623 1.92989208,20.3127585 C6.00219466,22.1579725 13.7054225,20.4342906 17.0649603,17.1929388 L17.0709248,17.1929388 C12.4170778,18.2393011 7.2308938,17.939917 3.20183426,15.9479751" id="Fill-225" fill="#555556"></path>
                                <path d="M21.495882,22.1607885 C20.2761297,22.1074329 20.3715626,20.8461661 20.3163905,19.8961403 C20.1464005,17.006046 17.1044755,17.1898264 17.0701793,17.1927905 L17.0642147,17.1927905 C16.7137969,17.5351556 16.3126803,17.8508428 15.8757764,18.1546732 C16.3037335,18.0805682 16.7301994,17.9975706 17.152192,17.9056805 L17.1909616,17.9056805 C17.8768859,17.9056805 19.490299,18.1013176 19.6006434,19.9391211 L19.6140636,20.2385053 C19.649851,21.1351755 19.7154611,22.7995734 21.4660592,22.8736784 L21.5406162,22.8736784 C23.0287736,22.8736784 24.5840323,21.0892304 25.4623136,19.7108778 C25.4503845,18.9001693 25.5279238,18.0850145 25.5890605,17.5588692 C25.5577466,17.7826662 25.5159947,17.9931243 25.4593314,18.1769047 C25.2147844,19.0068805 23.0794724,22.2230367 21.495882,22.1607885" id="Fill-227" fill-opacity="0.2" fill="#000000"></path>
                                <path d="M17.0646621,17.1926423 L17.0631709,17.1926423 C15.3409045,17.5809524 13.5396077,17.782518 11.7517312,17.782518 C8.72024415,17.782518 5.73349129,17.1970886 3.20153603,15.9476787 C3.1776778,15.7194353 3.16574868,15.4971204 3.15232842,15.2659128 C3.34915887,15.3548388 3.58475894,15.4393185 3.88000461,15.4852636 C6.14504585,16.5212512 8.85742901,17.0711102 11.7517312,17.0711102 C13.0907747,17.0711102 14.4298182,16.9480959 15.7599148,16.7168884 C15.7599148,16.7168884 16.808186,16.5508932 17.0646621,17.1926423" id="Fill-229" fill-opacity="0.2" fill="#000000"></path>
                            </g>
                            <g id="Group-4" transform="translate(57.283784, 92.800000)">
                                <path d="M0.738699611,2.83899919 L11.1259789,6.46125066 C11.115541,6.40641297 11.1006296,6.35750368 11.1006296,6.302666 C11.1006296,5.95585469 11.212465,5.58384768 11.3884195,5.23110797 L0.386790636,1.76892326 C0.348021003,1.90675853 0.327145047,2.04607589 0.327145047,2.18094696 C0.327145047,2.55740026 0.488188137,2.7886078 0.738699611,2.83899919" id="Fill-239" fill="#3D3D3D"></path>
                                <path d="M11.1009278,6.30251779 C11.1009278,5.4918093 11.6660697,4.51510565 12.3683966,4.09567145 L1.83945896,0.458598988 C1.67990701,0.4126539 1.47860314,0.442295892 1.26238788,0.56679226 C0.746453538,0.861730085 0.325952135,1.5879589 0.325952135,2.18079875 C0.325952135,2.55725205 0.488486365,2.78845959 0.738997839,2.83885098 L11.1262772,6.46110245 C11.1158392,6.40626476 11.1009278,6.35735547 11.1009278,6.30251779" id="Fill-235" fill="#4F4F4F"></path>
                                <path d="M15.3763236,5.20250345 C14.7172398,4.86310264 13.5541509,4.2228356 13.5541509,4.2228356 L13.5466952,4.228764 C13.3334622,3.86861379 12.9010317,3.78265201 12.4000087,4.07166144 C11.6827705,4.48368513 11.101226,5.47965608 11.101226,6.30222137 C11.101226,6.76463645 11.3010387,7.06698477 11.591811,7.17073175 L11.5843553,7.17814224 C11.5933021,7.17517804 11.6007578,7.17814224 11.6082135,7.17814224 C11.7006642,7.20630214 11.8005705,7.22112313 11.912406,7.21074843 C12.4402695,7.32190591 13.7166851,7.71318021 14.2654245,7.83619447 C14.9274905,7.98736864 15.7371794,7.79914198 16.0398808,7.09514466 C16.3455644,6.38225475 16.0398808,5.53745796 15.3763236,5.20250345" id="Fill-233" fill="#474747"></path>
                                <path d="M15.3763236,5.20250345 C14.8514424,4.93424342 13.8061535,4.48220304 13.6272167,4.30138688 C13.3379356,4.44218635 13.075495,4.64968029 12.8846291,4.96388541 C12.115201,6.21625959 13.4542445,6.47562702 14.0775409,6.72165556 C14.5487411,6.90247171 14.580055,7.56793444 15.4285135,7.7220728 C15.6894629,7.59164804 15.9086605,7.39304669 16.0398808,7.09514466 C16.3455644,6.38225475 16.0398808,5.53745796 15.3763236,5.20250345" id="Fill-237" fill="#666666"></path>
                            </g>
                            <g id="hand" transform="translate(21.216216, 29.527273)">
                                <path d="M43.0344596,70.0667093 C41.7893579,70.0266926 39.4974762,69.3049101 38.4193821,68.8098888 C37.3472527,68.3193138 37.0982323,66.7986796 37.1787539,65.6871049 C37.2667311,64.5755302 38.6117392,62.4190753 38.6117392,62.4190753 C38.6117392,62.4190753 39.6257142,60.2996728 40.0357776,59.8876491 C40.4503144,59.4771075 46.6549468,56.5603355 47.937327,56.1883285 C47.937327,56.1883285 51.9917359,58.2425185 52.2392651,59.1880981 C52.4867943,60.1381239 50.540857,65.6871049 47.4840205,66.3021763 C47.4840205,66.3021763 47.0918508,66.6904864 46.7995874,66.9794958 C46.5117974,67.2699873 46.5162708,67.8079895 46.3492632,68.1058915 C45.770701,69.1344686 45.5544857,70.1467427 43.0344596,70.0667093" id="Fill-241" fill="#B0795D"></path>
                                <path d="M46.737556,66.0951269 C45.1942264,66.1618214 44.891525,67.9284842 43.6210739,67.271914 C42.3461495,66.6212723 41.775043,66.7457687 39.4369359,66.5412389 C38.3320013,66.4449025 37.7743151,65.5423038 37.4835428,64.5952421 C37.325482,64.995409 37.2002263,65.3837191 37.1793503,65.6875495 C37.0973377,66.7991243 37.346358,68.3182764 38.4199786,68.8103334 C39.4980726,69.3053547 41.7899544,70.0256551 43.035056,70.0671539 C45.5550822,70.1457052 45.7712974,69.1334312 46.3483685,68.1063361 C46.5168673,67.806952 46.5123939,67.2689498 46.8001838,66.9799404 C47.0909561,66.690931 47.484617,66.3026209 47.484617,66.3026209 C47.5725942,66.2833536 47.6531158,66.2522295 47.741093,66.2225875 C47.3727815,66.126251 47.0268371,66.0803059 46.737556,66.0951269" id="Fill-243" fill="#885433"></path>
                                <path d="M66.5257257,0.609148096 C64.0310489,1.48655107 60.4836275,4.84054251 62.3415876,10.2679913 C64.2010389,15.6909938 64.2010389,20.1135791 64.2010389,24.7318015 C64.2010389,29.3485418 62.8142789,34.7344918 62.8142789,34.7344918 L45.2158479,57.2712986 C45.2158479,57.2712986 47.5136942,58.7860045 48.1474286,59.5848562 C48.6066996,60.1702855 51.4801259,62.097015 51.4801259,62.097015 C51.4801259,62.097015 71.0498436,44.4659579 73.0241126,38.8102658 C75.0013639,33.1545736 77.4378862,14.8061804 76.9756329,10.3020796 C76.5089061,5.80094306 73.7875761,-1.95933054 66.5257257,0.609148096" id="Fill-245" fill="#505051"></path>
                                <path d="M1.83874241,44.5981612 C2.35915017,43.8867534 4.1768495,43.7711496 4.1768495,43.7711496 L7.01150611,43.8630398 L10.3620971,41.4531458 C10.382973,41.1419049 10.3427123,40.8365924 10.265173,40.5372083 C9.11997768,41.1256018 7.15167325,42.1200907 6.22418434,42.3868686 C4.90303454,42.7662861 4.09334567,42.259408 1.83426899,42.3868686 C0.302868492,42.4743125 0.0657772756,44.356579 0.0687595551,45.5659723 C0.380407758,45.7082538 0.674162283,45.8194113 0.942567434,45.9053731 C1.28254729,45.3925666 1.62998285,44.8753139 1.83874241,44.5981612" id="Fill-231" fill="#885433"></path>
                            </g>
                            <path d="M58.1003949,108.652601 C57.9259315,107.167537 57.6918226,101.671911 56.9880047,96.4623313 C56.2528728,96.6001666 55.7399207,96.6787179 55.7399207,96.6787179 C55.7399207,96.6787179 51.1785243,95.7598161 46.8721128,94.9090909 L45.0171349,98.7166048 L48.3453588,101.062769 C48.3453588,101.062769 54.238343,108.994966 53.9520442,115.852641 C53.832753,118.7042 53.6776745,120.328581 53.4405833,121.465352 C55.273194,121.526118 57.3205288,121.235626 59.4811903,120.300422 C59.4811903,120.300422 58.4269545,111.424127 58.1003949,108.652601" id="Fill-247" fill="#27272B"></path>
                        </g>
                    </g>
                    <g id="Page-1-Copy-6" transform="translate(160.000000, 54.000000)">
                        <g id="Group-31">
                            <g id="Group-6" transform="translate(0.000000, 3.272727)"></g>
                            <g id="Group-9">
                                <mask id="mask-7" fill="white">
                                    <use xlink:href="#path-6"></use>
                                </mask>
                                <g id="Clip-8"></g>
                                <polygon id="Fill-7" fill="#946A10" mask="url(#mask-7)" points="0.167670588 3.69196364 5.62108235 0.5436 35.4344941 48.4105091 29.9827294 51.5572364"></polygon>
                            </g>
                            <path d="M31.3983528,51.0423144 L31.3993647,51.0419455 L38.9214824,62.4474 L46.4831294,59.6950364 L47.8930118,61.8337636 L38.9116,65.8968545 L29.9812471,51.5590364 L30.9140822,51.2188949 L29.9820706,51.5580545 L0.167011765,3.69278182 L31.3983528,51.0423144 Z M46.4831294,59.6950364 L77.8826588,48.2699455 L47.8930118,61.8337636 L46.4831294,59.6950364 Z" id="Combined-Shape" fill="#BCBCBC"></path>
                            <path d="M47.8938353,61.8332727 L77.8834824,48.2694545 L77.7994824,77.6585455 L77.7138353,107.037818 L47.8938353,61.8332727 Z M0.167670588,3.69196364 L29.9827294,51.5572364 L-0.000329411763,62.4603273 L0.0836705882,33.0810545 L0.167670588,3.69196364 Z" id="Combined-Shape" fill="#D0D2D3"></path>
                            <polygon id="Fill-16" fill="#E5E6E7" points="47.8938353 61.8332727 77.7138353 107.037818 38.8580706 84.7489091 0.000658823529 62.46 29.9820706 51.5585455 38.9124235 65.8963636"></polygon>
                            <path d="M81.1599765,75.7184916 L77.7998118,77.6583818 L77.7141647,107.037655 L83.1692235,103.889291 L83.2532235,74.5100182 L83.3368941,45.1217455 L77.8834824,48.2701091 L77.7994824,77.6575636 L81.1599765,75.7184916 Z" id="Combined-Shape" fill="#D9D9D9"></path>
                            <path d="M39.1772444,25.893 L39.0247529,25.9810364 L77.8838118,48.2699455 L83.3355765,45.1215818 L44.4781647,22.8326727 L39.1772444,25.893 L44.4768471,22.8325091 L5.62108235,0.5436 L0.167670588,3.69196364 L39.0250824,25.9808727 L39.1772444,25.893 Z" id="Combined-Shape" fill="#ECECEC"></path>
                            <polygon id="Fill-29" fill="#FFFFFF" points="77.8834824 48.2701091 46.4839529 59.6952 38.9223059 62.4475636 31.3985412 51.0421091 0.167011765 3.69229091 39.0244235 25.9812"></polygon>
                        </g>
                    </g>
                    <g id="Page-1-Copy-7" transform="translate(244.000000, 0.000000)">
                        <g id="Group-31">
                            <g id="Group-6" transform="translate(0.000000, 3.272727)"></g>
                            <g id="Group-9">
                                <mask id="mask-9" fill="white">
                                    <use xlink:href="#path-8"></use>
                                </mask>
                                <g id="Clip-8"></g>
                                <polygon id="Fill-7" fill="#946A10" mask="url(#mask-9)" points="0.167670588 3.69196364 5.62108235 0.5436 35.4344941 48.4105091 29.9827294 51.5572364"></polygon>
                            </g>
                            <path d="M31.3983528,51.0423144 L31.3993647,51.0419455 L38.9214824,62.4474 L46.4831294,59.6950364 L47.8930118,61.8337636 L38.9116,65.8968545 L29.9812471,51.5590364 L30.9140822,51.2188949 L29.9820706,51.5580545 L0.167011765,3.69278182 L31.3983528,51.0423144 Z M46.4831294,59.6950364 L77.8826588,48.2699455 L47.8930118,61.8337636 L46.4831294,59.6950364 Z" id="Combined-Shape" fill="#BCBCBC"></path>
                            <path d="M47.8938353,61.8332727 L77.8834824,48.2694545 L77.7994824,77.6585455 L77.7138353,107.037818 L47.8938353,61.8332727 Z M0.167670588,3.69196364 L29.9827294,51.5572364 L-0.000329411763,62.4603273 L0.0836705882,33.0810545 L0.167670588,3.69196364 Z" id="Combined-Shape" fill="#D0D2D3"></path>
                            <polygon id="Fill-16" fill="#E5E6E7" points="47.8938353 61.8332727 77.7138353 107.037818 38.8580706 84.7489091 0.000658823529 62.46 29.9820706 51.5585455 38.9124235 65.8963636"></polygon>
                            <path d="M81.1599765,75.7184916 L77.7998118,77.6583818 L77.7141647,107.037655 L83.1692235,103.889291 L83.2532235,74.5100182 L83.3368941,45.1217455 L77.8834824,48.2701091 L77.7994824,77.6575636 L81.1599765,75.7184916 Z" id="Combined-Shape" fill="#D9D9D9"></path>
                            <path d="M39.1772444,25.893 L39.0247529,25.9810364 L77.8838118,48.2699455 L83.3355765,45.1215818 L44.4781647,22.8326727 L39.1772444,25.893 L44.4768471,22.8325091 L5.62108235,0.5436 L0.167670588,3.69196364 L39.0250824,25.9808727 L39.1772444,25.893 Z" id="Combined-Shape" fill="#ECECEC"></path>
                            <polygon id="Fill-29" fill="#FFFFFF" points="77.8834824 48.2701091 46.4839529 59.6952 38.9223059 62.4475636 31.3985412 51.0421091 0.167011765 3.69229091 39.0244235 25.9812"></polygon>
                        </g>
                    </g>
                </g>
            </g>
        </g>
    </g>
</svg>