<svg id="Layer_1" data-name="Layer 1" xmlns="http://www.w3.org/2000/svg" xmlns:xlink="http://www.w3.org/1999/xlink" viewBox="0 0 516 92"><defs><style>.cls-1,.cls-2{fill:none;}.cls-1{clip-rule:evenodd;}.cls-3{fill:#444;}.cls-3,.cls-4{fill-rule:evenodd;}.cls-4{fill:url(#linear-gradient);}.cls-5{clip-path:url(#clip-path);}.cls-6{clip-path:url(#clip-path-2);}.cls-7{fill:#fff;}.cls-8{clip-path:url(#clip-path-3);}</style><linearGradient id="linear-gradient" x1="227.7" y1="522.25" x2="315.18" y2="471.75" gradientUnits="userSpaceOnUse"><stop offset="0" stop-color="#c365d9"/><stop offset="0.42" stop-color="#a634eb"/><stop offset="0.8" stop-color="#900ef9"/><stop offset="1" stop-color="#8800fe"/></linearGradient><clipPath id="clip-path" transform="translate(-241.32 -453.84)"><polygon class="cls-1" points="287.32 475.58 287.32 485.98 297.61 485.98 287.32 475.58"/></clipPath><clipPath id="clip-path-2" transform="translate(-241.32 -453.84)"><rect class="cls-2" x="-12.68" y="-12.16" width="1024" height="1024"/></clipPath><clipPath id="clip-path-3" transform="translate(-241.32 -453.84)"><polygon class="cls-1" points="263.32 473.85 263.32 525.85 299.32 525.85 299.32 489.44 283.9 489.44 283.9 473.85 263.32 473.85"/></clipPath></defs><title>dispatchlogo</title><path class="cls-3" d="M709,454.17V525h12.34V499.5c0-7.49,5.06-13.66,12.34-13.66,6.58,0,11.33,3.84,11.33,13V525h12.34V498.69c0-14.67-6.27-24.28-20.43-24.28-5.67,0-11.13,1.72-15.58,7.49V454.17Zm-13.76,56.36a15,15,0,0,1-10.93,4.15c-7.69,0-14.16-5.06-14.16-14.57,0-8.7,6.07-14.77,14.37-14.77a15.15,15.15,0,0,1,10,3.95l7.79-8.2a23.68,23.68,0,0,0-18-7.39c-14.47,0-26.5,8.7-26.5,26.41s12,26.41,26.5,26.41a25.66,25.66,0,0,0,19.22-7.89Zm-69.8-48.16v12.85H616.1v10.62h9.31V507.4c0,12.45,7.08,18.62,17.91,18.21a27.56,27.56,0,0,0,10.22-2.12L650.09,513a14.1,14.1,0,0,1-6,1.52c-3.84,0-6.47-2.33-6.47-7.08V485.84h13.86V475.22H637.75V461.05Zm-42.49,22.56c-8.19,0-14.77,5.57-14.77,15.08s6.58,15.18,14.77,15.18C602.34,515.19,602.34,484.93,582.92,484.93ZM597.69,482l.4-6.88h11.84V525H598.3l-.61-7.29c-2.83,5.87-10.62,8.7-16.19,8.8-14.77.1-25.7-9-25.7-26.51,0-17.2,11.43-26.21,26-26.11C588.48,473.9,594.86,477,597.69,482Zm-90,63.85H495.31V475.12h11.53l.81,6.88c3.84-5.57,10.52-8,16.19-8,15.38,0,25.59,11.43,25.59,26.11s-9.21,26.11-25.19,26.11c-5.26,0-13.05-1.62-16.59-7.08Zm15.28-31.57a13.83,13.83,0,0,0,14.16-14.17c0-7.79-5.26-14.17-14.16-14.17s-14.16,6.37-14.16,14.17A13.83,13.83,0,0,0,522.93,514.28Zm-37.84-34c-5.77-5.06-11.63-6.58-19.42-6.58-9.1,0-21,4-21,15.58,0,11.33,11.23,14.77,20.64,15.48,7.08.4,9.91,1.82,9.91,5.26,0,3.64-4.35,6.07-9,6-5.56-.1-13.66-3-17.2-7l-6.07,8.8c7.28,7.59,15.17,8.9,23.07,8.9,14.26,0,21.45-7.59,21.45-16.39,0-13.25-11.94-15.38-21.35-16-6.37-.4-9.31-2.23-9.31-5.46s3.24-5,9.1-5c4.75,0,8.8,1.11,12.34,4.45Zm-64-19.22c0-9.61,14.57-9.61,14.57,0S421.06,470.67,421.06,461.05Zm13.45,13.86V525H422.17V474.92Zm-35.41-20.64h12.34V525H399.91l-.81-6.88c-3.84,6-10,8-16.08,8-14.67,0-25.7-9.71-25.7-26.11,0-17.2,10.82-26.11,25.39-26.11,5.26,0,13.45,2.83,16.39,8Zm-15.28,31.16c-7.89,0-14.16,5.57-14.16,14.57,0,8.7,6.27,14.67,14.16,14.67S398.3,509,398.3,500A14.23,14.23,0,0,0,383.83,485.44Z" transform="translate(-241.32 -453.84)"/><path class="cls-4" d="M277.4,453.84c31.48,0,45.52,22.47,45.92,45.21.39,23.26-13.77,46.79-45.92,46.79H241.32v-92Z" transform="translate(-241.32 -453.84)"/><g class="cls-5"><g class="cls-6"><rect class="cls-7" x="41" y="16.73" width="20.29" height="20.4"/></g></g><g class="cls-8"><g class="cls-6"><rect class="cls-7" x="17" y="15" width="46" height="62"/></g></g></svg>