<svg id="Layer_1" data-name="Layer 1" xmlns="http://www.w3.org/2000/svg" viewBox="0 0 516 92"><defs><style>.cls-1{fill:#fff;fill-rule:evenodd;}</style></defs><title>dispatch-white</title><path class="cls-1" d="M478.44,4.17V75h12.34V49.5c0-7.49,5.06-13.66,12.34-13.66,6.58,0,11.33,3.84,11.33,13V75h12.34V48.69c0-14.67-6.27-24.28-20.43-24.28-5.67,0-11.13,1.72-15.58,7.49V4.17ZM464.68,60.53a15,15,0,0,1-10.93,4.15c-7.69,0-14.16-5.06-14.16-14.57,0-8.7,6.07-14.77,14.37-14.77a15.15,15.15,0,0,1,10,3.95l7.79-8.2a23.68,23.68,0,0,0-18-7.39c-14.47,0-26.5,8.7-26.5,26.41s12,26.41,26.5,26.41A25.66,25.66,0,0,0,473,68.63Zm-69.8-48.16V25.22h-9.31V35.84h9.31V57.4c0,12.45,7.08,18.62,17.91,18.21A27.56,27.56,0,0,0,423,73.48L419.56,63a14.1,14.1,0,0,1-6,1.52c-3.84,0-6.47-2.33-6.47-7.08V35.84H421V25.22H407.22V11.05ZM352.39,34.93c-8.19,0-14.77,5.57-14.77,15.08s6.58,15.18,14.77,15.18C371.81,65.19,371.81,34.93,352.39,34.93ZM367.16,32l.4-6.88H379.4V75H367.76l-.61-7.29c-2.83,5.87-10.62,8.7-16.19,8.8-14.77.1-25.7-9-25.7-26.51,0-17.2,11.43-26.21,26-26.11C357.95,23.9,364.32,27,367.16,32Zm-90,63.85H264.78V25.12h11.53l.81,6.88c3.84-5.57,10.52-8,16.19-8,15.38,0,25.59,11.43,25.59,26.11s-9.21,26.11-25.19,26.11c-5.26,0-13.05-1.62-16.59-7.08ZM292.4,64.28a13.83,13.83,0,0,0,14.16-14.17c0-7.79-5.26-14.17-14.16-14.17s-14.16,6.37-14.16,14.17A13.83,13.83,0,0,0,292.4,64.28Zm-37.84-34c-5.77-5.06-11.63-6.58-19.42-6.58-9.1,0-21,4-21,15.58,0,11.33,11.23,14.77,20.64,15.48,7.08.4,9.91,1.82,9.91,5.26,0,3.64-4.35,6.07-9,6-5.56-.1-13.66-3-17.2-7l-6.07,8.8c7.28,7.59,15.17,8.9,23.07,8.9,14.26,0,21.45-7.59,21.45-16.39,0-13.25-11.94-15.38-21.35-16-6.37-.4-9.31-2.23-9.31-5.46s3.24-5,9.1-5c4.75,0,8.8,1.11,12.34,4.45Zm-64-19.22c0-9.61,14.57-9.61,14.57,0S190.52,20.67,190.52,11.05ZM204,24.92V75H191.64V24.92ZM168.57,4.27h12.34V75H169.38l-.81-6.88c-3.84,6-10,8-16.08,8-14.67,0-25.7-9.71-25.7-26.11,0-17.2,10.82-26.11,25.39-26.11,5.26,0,13.45,2.83,16.39,8ZM153.3,35.44c-7.89,0-14.16,5.57-14.16,14.57,0,8.7,6.27,14.67,14.16,14.67S167.76,59,167.76,50A14.23,14.23,0,0,0,153.3,35.44Z" transform="translate(-10.79 -3.84)"/><path class="cls-1" d="M46.87,3.84H10.79v92H46.87c32.14,0,46.31-23.53,45.92-46.79C92.39,26.32,78.35,3.84,46.87,3.84Zm9.92,21.73L67.08,36H56.79Zm12,50.27h-36v-52H53.36v15.6H68.79Z" transform="translate(-10.79 -3.84)"/></svg>